<svg viewBox="0 0 23 16" fill="none" xmlns="http://www.w3.org/2000/svg"><path fill-rule="evenodd" clip-rule="evenodd" d="M22.77 5.33C21.62 5.47 20.7 6.67 20.7 8c0 1.33.92 2.53 2.07 2.67.12 0 .23.13.23.26v3.74c0 .8-.46 1.33-1.15 1.33h-4.03c.35 0 .58-.27.58-.67s-.23-.66-.57-.66c-.35 0-.58.26-.58.66s.23.67.57.67H1.15C.46 16 0 15.47 0 14.67v-3.74c0-.13.12-.26.23-.26C1.38 10.53 2.3 9.33 2.3 8c0-1.33-.92-2.53-2.07-2.67-.11 0-.23-.13-.23-.26V1.33C0 .53.46 0 1.15 0h20.7C22.54 0 23 .53 23 1.33v3.74c0 .13-.11.26-.23.26Zm-5.52 7.34c0 .4.23.66.57.66.35 0 .58-.26.58-.66s-.23-.67-.57-.67c-.35 0-.58.27-.58.67Zm.57-2c-.34 0-.57-.27-.57-.67s.23-.67.57-.67c.35 0 .58.27.58.67s-.23.67-.57.67Zm-.57-3.34c0 .4.23.67.57.67.35 0 .58-.27.58-.67s-.23-.66-.57-.66c-.35 0-.58.26-.58.66Zm.57-2c-.34 0-.57-.26-.57-.66s.23-.67.57-.67c.35 0 .58.27.58.67s-.23.66-.57.66ZM17.25 2c0 .4.23.67.57.67.35 0 .58-.27.58-.67s-.23-.67-.57-.67c-.35 0-.58.27-.58.67Z" fill="#1A338F"/></svg>