<svg viewBox="0 0 24 23" fill="none" xmlns="http://www.w3.org/2000/svg"><path d="M21.9 2.32h-1.96v.9a2.92 2.92 0 0 1-5.83-.01v-.9H9.9v.9a2.91 2.91 0 0 1-5.83 0v-.9H2.13c-1.16 0-2.1.93-2.1 2.07v3.86H24V4.38a2.1 2.1 0 0 0-2.1-2.06Z" fill="#1A338F"/><path d="M7.02 4.63c.8 0 1.43-.65 1.43-1.42v-1.8C8.45.63 7.8 0 7.02 0 6.2 0 5.58.65 5.58 1.42v1.8a1.4 1.4 0 0 0 1.44 1.41Zm9.98 0c.82 0 1.45-.65 1.45-1.42v-1.8C18.45.63 17.79 0 17 0c-.8 0-1.44.65-1.44 1.42v1.8c0 .79.63 1.41 1.44 1.41Z" fill="#1A338F"/><path fill-rule="evenodd" clip-rule="evenodd" d="M2.12 23c-1.16 0-2.1-.92-2.1-2.07H0V9.68h23.97v11.25c0 1.15-.93 2.07-2.09 2.07H2.12Zm8.53-7.99-1.56.22a.48.48 0 0 0-.26.83l1.11 1.07c.08.07.13.2.1.3l-.27 1.54c-.08.37.33.64.65.47l1.37-.72c.1-.05.22-.05.32 0l1.42.72c.33.17.73-.1.65-.47l-.25-1.52c-.02-.1.03-.22.1-.3l1.14-1.1a.45.45 0 0 0-.26-.77l-1.53-.22a.4.4 0 0 1-.26-.2l-.7-1.42a.48.48 0 0 0-.84 0l-.68 1.37c-.05.13-.12.17-.25.2Z" fill="#1A338F"/></svg>