<?xml version="1.0" encoding="utf-8"?>
<!-- Generator: Adobe Illustrator 21.0.0, SVG Export Plug-In . SVG Version: 6.00 Build 0)  -->
<svg version="1.1" baseProfile="tiny" id="Calque_1"
	 xmlns="http://www.w3.org/2000/svg" xmlns:xlink="http://www.w3.org/1999/xlink" x="0px" y="0px" viewBox="0 0 80 80"
	 xml:space="preserve">
<g>
	<path fill="#FFFFFF" d="M72.5,20.1l-4.7,0v-5.1C67.8,7.9,61.9,2,54.7,2H14.3C7.1,2,1.2,7.9,1.2,15.1V63C1.2,70.2,7.1,76,14.3,76
		h55.9h1.2h1.2c4.1,0,7.5-3.4,7.5-7.5v-41C80,23.5,76.6,20.1,72.5,20.1z M14.3,70.5c-4.2,0-7.5-3.4-7.5-7.5V15.1
		c0-4.2,3.4-7.5,7.5-7.5h40.4c4.2,0,7.5,3.4,7.5,7.5V63c0,3.3,0.8,5.7,1.8,7.5H14.3z M74.5,68.6c0,1.1-0.9,2-2,2h-0.8
		c-0.9-0.3-4-2-4-7.5V27.6c0-0.4,0-1.2,0-2l4.7,0c1.1,0,2,0.9,2,2V68.6z"/>
	<path fill="#FFFFFF" d="M50.6,27.1H17.7c-1.1,0-1.9-0.9-1.9-1.9V24c0-1.1,0.9-1.9,1.9-1.9h32.8c1.1,0,1.9,0.9,1.9,1.9v1.1
		C52.5,26.2,51.7,27.1,50.6,27.1z"/>
	<path fill="#FFFFFF" d="M50.6,41.9H17.7c-1.1,0-1.9-0.9-1.9-1.9v-1.1c0-1.1,0.9-1.9,1.9-1.9h32.8c1.1,0,1.9,0.9,1.9,1.9V40
		C52.5,41,51.7,41.9,50.6,41.9z"/>
	<path fill="#FFFFFF" d="M51.4,56.7H18.5c-1.1,0-1.9-0.9-1.9-1.9v-1.1c0-1.1,0.9-1.9,1.9-1.9h32.8c1.1,0,1.9,0.9,1.9,1.9v1.1
		C53.3,55.9,52.5,56.7,51.4,56.7z"/>
</g>
</svg>
