<?xml version="1.0" encoding="utf-8"?>
<!-- Generator: Adobe Illustrator 21.0.0, SVG Export Plug-In . SVG Version: 6.00 Build 0)  -->
<svg version="1.1" baseProfile="tiny" id="Calque_1"
	 xmlns="http://www.w3.org/2000/svg" xmlns:xlink="http://www.w3.org/1999/xlink" x="0px" y="0px" viewBox="0 0 80 80"
	 xml:space="preserve">
<rect x="14" y="36.6" fill="currentcolor" width="11.4" height="11.4"/>
<rect x="34.4" y="36.6" fill="currentcolor" width="11.4" height="11.4"/>
<rect x="54.9" y="36.6" fill="currentcolor" width="11.4" height="11.4"/>
<rect x="14" y="55.7" fill="currentcolor" width="11.4" height="11.4"/>
<rect x="34.7" y="55.7" fill="currentcolor" width="11.4" height="11.4"/>
<rect x="55.3" y="55.7" fill="currentcolor" width="11.4" height="11.4"/>
<path fill="currentcolor" d="M24.1,19.1L24.1,19.1c-2.2,0-4-1.8-4-4V5c0-2.2,1.8-4,4-4l0,0c2.2,0,4,1.8,4,4v10
	C28.1,17.2,26.3,19.1,24.1,19.1z"/>
<path fill="currentcolor" d="M55,19.1L55,19.1c-2.2,0-4-1.8-4-4V5c0-2.2,1.8-4,4-4l0,0c2.2,0,4,1.8,4,4v10C59.1,17.2,57.3,19.1,55,19.1z"
	/>
<path fill="currentcolor" d="M68.9,10h-6.7v5.2c0,3.9-3.2,7.1-7.1,7.1s-7.1-3.2-7.1-7.1V10H31.2v5.2c0,3.9-3.2,7.1-7.1,7.1
	c-3.9,0-7.1-3.2-7.1-7.1V10h-5.6C7.3,10,4,13.3,4,17.4v53.2c0,4.1,3.3,7.4,7.4,7.4h57.5c4.1,0,7.4-3.3,7.4-7.4V17.4
	C76.2,13.3,72.9,10,68.9,10z M72.9,70.6c0,2.2-1.8,4-4,4H11.4c-2.2,0-4-1.8-4-4V29.8h65.6V70.6z"/>
</svg>
