<?xml version="1.0" encoding="utf-8"?>
<!-- Generator: Adobe Illustrator 21.0.0, SVG Export Plug-In . SVG Version: 6.00 Build 0)  -->
<svg version="1.1" baseProfile="tiny" id="Calque_1"
	 xmlns="http://www.w3.org/2000/svg" xmlns:xlink="http://www.w3.org/1999/xlink" x="0px" y="0px" viewBox="0 0 80 80"
	 xml:space="preserve">
<path fill="#19338F" d="M0,70.9h50.3c-0.8-16-7.2-29.4-16.1-34.9c3.2-2.5,5.3-6.5,5.3-10.9c0-7.7-6.2-13.9-13.9-13.9
	s-13.9,6.2-13.9,13.9c0,4.3,1.9,8.1,5,10.7C7.5,41.1,0.8,54.7,0,70.9z"/>
<path fill="#19338F" d="M35.9,70.9H79C78.3,57.2,72.8,45.7,65.2,41c2.8-2.2,4.6-5.6,4.6-9.4c0-6.6-5.3-11.9-11.9-11.9
	c-6.6,0-11.9,5.3-11.9,11.9c0,3.7,1.7,7,4.3,9.1C42.3,45.3,36.6,57,35.9,70.9z"/>
</svg>
