<?xml version="1.0" encoding="utf-8"?>
<!-- Generator: Adobe Illustrator 21.0.0, SVG Export Plug-In . SVG Version: 6.00 Build 0)  -->
<svg version="1.1" baseProfile="tiny" id="Calque_1"
	 xmlns="http://www.w3.org/2000/svg" xmlns:xlink="http://www.w3.org/1999/xlink" x="0px" y="0px" viewBox="0 0 80 80"
	 xml:space="preserve">
<path fill="currentcolor" d="M74.9,34.3H19.2l20.3-20.3c2-2,2-5.2,0-7.2l-0.7-0.7c-2-2-5.2-2-7.2,0L3.3,34.3c-0.4,0.2-0.8,0.5-1.1,0.8
	l-0.7,0.7c-1,1-1.5,2.4-1.5,3.8c0,1.4,0.4,2.7,1.5,3.8l0.7,0.7c0.3,0.3,0.7,0.6,1.1,0.8l28.2,28.2c2,2,5.2,2,7.2,0l0.7-0.7
	c2-2,2-5.2,0-7.2l-20-20h55.3c2.8,0,5.1-2.3,5.1-5.1v-0.6C80,36.6,77.7,34.3,74.9,34.3z"/>
</svg>
