<?xml version="1.0" encoding="utf-8"?>
<!-- Generator: Adobe Illustrator 21.0.0, SVG Export Plug-In . SVG Version: 6.00 Build 0)  -->
<svg version="1.1" baseProfile="tiny" id="Calque_1"
	 xmlns="http://www.w3.org/2000/svg" xmlns:xlink="http://www.w3.org/1999/xlink" x="0px" y="0px" viewBox="0 0 80 80"
	 xml:space="preserve">
<path fill="#19338F" d="M17.5,65h42.8c-0.7-13.6-6.2-25-13.7-29.7c2.8-2.2,4.5-5.5,4.5-9.3c0-6.5-5.3-11.9-11.9-11.9
	S27.4,19.4,27.4,26c0,3.6,1.6,6.9,4.2,9.1C23.9,39.6,18.2,51.2,17.5,65z"/>
<path fill="#19338F" d="M1.4,65h31.3c-0.5-9.9-4.5-18.3-10-21.7c2-1.6,3.3-4,3.3-6.8c0-4.8-3.9-8.7-8.7-8.7s-8.7,3.9-8.7,8.7
	c0,2.7,1.2,5,3.1,6.6C6,46.5,1.8,54.9,1.4,65z"/>
<path fill="#19338F" d="M43.3,65H80c-0.6-11.7-5.3-21.4-11.8-25.5c2.4-1.9,3.9-4.7,3.9-8c0-5.6-4.6-10.2-10.2-10.2
	s-10.2,4.6-10.2,10.2c0,3.1,1.4,5.9,3.6,7.8C48.7,43.2,43.9,53.1,43.3,65z"/>
</svg>
