<?xml version="1.0" encoding="utf-8"?>
<!-- Generator: Adobe Illustrator 21.0.0, SVG Export Plug-In . SVG Version: 6.00 Build 0)  -->
<svg version="1.1" baseProfile="tiny" id="Calque_1"
	 xmlns="http://www.w3.org/2000/svg" xmlns:xlink="http://www.w3.org/1999/xlink" x="0px" y="0px" viewBox="0 0 80 80"
	 xml:space="preserve">
<path fill="#FFFFFF" d="M31.7,46.2H23V36c0-2.1-1.8-3.9-3.9-3.9h-0.3c-2.1,0-3.9,1.8-3.9,3.9v10.2H6.1c-2.1,0-3.9,1.8-3.9,3.9
	c0,2.1,1.8,3.9,3.9,3.9h8.8v22c0,2.1,1.8,3.9,3.9,3.9h0.3c2.1,0,3.9-1.8,3.9-3.9v-22h8.8c2.1,0,3.9-1.8,3.9-3.9
	C35.6,48,33.9,46.2,31.7,46.2z"/>
<path fill="#FFFFFF" d="M66.8,15.3H46.5c-0.6,0-1.1-0.5-1.1-1.1v0c0-0.6,0.5-1.1,1.1-1.1h20.2c0.6,0,1.1,0.5,1.1,1.1v0
	C67.9,14.8,67.4,15.3,66.8,15.3z"/>
<path fill="#FFFFFF" d="M66.8,21.7H46.5c-0.6,0-1.1-0.5-1.1-1.1v0c0-0.6,0.5-1.1,1.1-1.1h20.2c0.6,0,1.1,0.5,1.1,1.1v0
	C67.9,21.2,67.4,21.7,66.8,21.7z"/>
<path fill="#FFFFFF" d="M66.8,28H46.5c-0.6,0-1.1-0.5-1.1-1.1v0c0-0.6,0.5-1.1,1.1-1.1h20.2c0.6,0,1.1,0.5,1.1,1.1v0
	C67.9,27.5,67.4,28,66.8,28z"/>
<path fill="#FFFFFF" d="M56,0C43.5,0,33.4,9.1,33.4,20.2c0,3.8,1.2,7.4,3.4,10.6l-4.2,7.5c-0.4,0.7-0.3,1.7,0.3,2.3
	c0.4,0.4,0.9,0.6,1.4,0.6c0.3,0,0.5-0.1,0.8-0.2l8.7-3.9c3.7,2.1,7.9,3.2,12.3,3.2c12.5,0,22.6-9.1,22.6-20.2S68.5,0,56,0z M56,36.5
	c-4,0-7.9-1.1-11.1-3.2c-0.3-0.2-0.7-0.3-1.1-0.3c-0.3,0-0.5,0.1-0.8,0.2L38.8,35l2-3.4c0.4-0.7,0.3-1.6-0.2-2.2
	c-2.2-2.7-3.3-5.9-3.3-9.2c0-9,8.4-16.3,18.7-16.3s18.7,7.3,18.7,16.3S66.3,36.5,56,36.5z"/>
</svg>
