<?xml version="1.0" encoding="utf-8"?>
<!-- Generator: Adobe Illustrator 21.0.0, SVG Export Plug-In . SVG Version: 6.00 Build 0)  -->
<svg version="1.1" baseProfile="tiny" id="Calque_1"
	 xmlns="http://www.w3.org/2000/svg" xmlns:xlink="http://www.w3.org/1999/xlink" x="0px" y="0px" viewBox="0 0 80 80"
	 xml:space="preserve">
<path fill="currentcolor" d="M69.6,5.1c0,0,0.5,52.5,0.5,67.1c0,2.7-2,4.9-6.3,5.4C59.6,77.8,13.9,79,15,79.6c0.9,0.5,2.1,0.3,3.3,0.3
	h49.5c3,0,5.5-1.9,5.7-4.3h0c0,0,0-66.5,0-66.8C73.5,6.6,69.6,5.1,69.6,5.1z"/>
<path fill="currentcolor" d="M6,8.1c0,3.3,0,66.2,0,66.2c0,4.1,1.5,4.6,7,4.1V3.1C12.9,3.1,6.5,2.5,6,8.1z"/>
<path fill="currentcolor" d="M62.1,0L14.4,3.1v75.2l47.7-3.1c3.3,0,6-2.1,6-4.7V4.7C68.1,2.1,65.4,0,62.1,0z M25.9,51.8
	c-0.2,0-0.4,0-0.5-0.1c-0.2-0.1-0.3-0.1-0.4-0.3c-0.1-0.1-0.3-0.3-0.4-0.4c-0.1-0.2-0.2-0.3-0.4-0.5l-4.1-6.3l0,6.4
	c0,0.4-0.1,0.7-0.3,0.9c-0.2,0.2-0.4,0.3-0.7,0.3c-0.3,0-0.6-0.1-0.7-0.3C18.1,51.3,18,51,18,50.6l0-8.4c0-0.4,0-0.6,0.1-0.8
	c0.1-0.2,0.2-0.4,0.5-0.5c0.2-0.1,0.5-0.2,0.7-0.2c0.2,0,0.4,0,0.5,0.1c0.1,0.1,0.3,0.1,0.4,0.3c0.1,0.1,0.2,0.2,0.3,0.4
	c0.1,0.2,0.2,0.4,0.3,0.5l4.3,6.4l0-6.4c0-0.4,0.1-0.7,0.3-0.9c0.2-0.2,0.4-0.3,0.7-0.3c0.3,0,0.6,0.1,0.7,0.3
	c0.2,0.2,0.3,0.5,0.3,0.9l0,8.5C27.1,51.3,26.7,51.8,25.9,51.8z M26.2,31.2c-0.3-0.5-0.5-1-0.5-1.4c0-0.3,0.1-0.5,0.3-0.7
	c0.2-0.2,0.4-0.3,0.7-0.3c0.2,0,0.4,0.1,0.6,0.2c0.2,0.1,0.3,0.4,0.4,0.7c0.1,0.3,0.3,0.6,0.5,0.9c0.2,0.2,0.4,0.4,0.7,0.6
	c0.3,0.1,0.7,0.2,1.1,0.2c0.7,0,1.2-0.2,1.6-0.5c0.4-0.3,0.6-0.7,0.6-1.1c0-0.4-0.1-0.7-0.3-0.9c-0.2-0.2-0.5-0.4-0.9-0.5
	c-0.3-0.1-0.8-0.2-1.4-0.4c-0.8-0.2-1.4-0.4-2-0.6c-0.5-0.2-0.9-0.6-1.3-1c-0.3-0.4-0.5-0.9-0.5-1.6c0-0.6,0.2-1.1,0.5-1.6
	c0.3-0.5,0.8-0.8,1.4-1.1c0.6-0.3,1.3-0.4,2.2-0.4c0.7,0,1.2,0.1,1.7,0.2c0.5,0.2,0.9,0.4,1.2,0.7c0.3,0.3,0.6,0.6,0.7,0.9
	s0.2,0.6,0.2,0.9c0,0.3-0.1,0.5-0.3,0.7c-0.2,0.2-0.4,0.3-0.7,0.3c-0.3,0-0.4-0.1-0.6-0.2c-0.1-0.1-0.3-0.3-0.4-0.6
	c-0.2-0.4-0.4-0.7-0.7-1c-0.3-0.2-0.7-0.3-1.3-0.3c-0.6,0-1,0.1-1.4,0.4c-0.3,0.3-0.5,0.6-0.5,0.9c0,0.2,0.1,0.4,0.2,0.6
	c0.1,0.2,0.3,0.3,0.5,0.4c0.2,0.1,0.4,0.2,0.6,0.3c0.2,0.1,0.6,0.2,1.1,0.3c0.6,0.1,1.2,0.3,1.7,0.5c0.5,0.2,0.9,0.4,1.3,0.6
	c0.3,0.2,0.6,0.6,0.8,0.9c0.2,0.4,0.3,0.8,0.3,1.4c0,0.7-0.2,1.2-0.5,1.8c-0.3,0.5-0.8,0.9-1.5,1.2C31.7,32.8,30.9,33,30,33
	c-1.1,0-2-0.2-2.7-0.6C26.9,32.1,26.5,31.7,26.2,31.2z M37.6,51.3c-0.2,0.2-0.4,0.2-0.8,0.2l-6,0c-0.5,0-0.8-0.1-1-0.3
	c-0.2-0.2-0.3-0.6-0.3-1l0-8.1c0-0.3,0-0.6,0.1-0.8c0.1-0.2,0.2-0.3,0.4-0.4c0.2-0.1,0.5-0.1,0.8-0.1l5.8,0c0.3,0,0.6,0.1,0.8,0.2
	c0.2,0.2,0.3,0.4,0.3,0.6c0,0.3-0.1,0.5-0.3,0.6c-0.2,0.2-0.4,0.2-0.8,0.2l-4.9,0l0,2.7l4.6,0c0.3,0,0.6,0.1,0.8,0.2
	c0.2,0.1,0.2,0.3,0.3,0.6c0,0.2-0.1,0.4-0.2,0.6c-0.2,0.2-0.4,0.2-0.8,0.2l-4.6,0l0,3.1l5.1,0c0.3,0,0.6,0.1,0.8,0.2
	c0.2,0.2,0.3,0.4,0.3,0.6C37.9,50.9,37.8,51.1,37.6,51.3z M38.6,23.7l-2.4,0c-0.4,0-0.7-0.1-0.8-0.2c-0.2-0.2-0.3-0.4-0.3-0.7
	c0-0.3,0.1-0.5,0.3-0.7c0.2-0.2,0.5-0.2,0.8-0.2l7,0c0.4,0,0.7,0.1,0.8,0.2c0.2,0.2,0.3,0.4,0.3,0.7c0,0.3-0.1,0.5-0.3,0.7
	c-0.2,0.2-0.5,0.2-0.8,0.3l-2.4,0l0,7.9c0,0.5-0.1,0.8-0.3,1s-0.5,0.3-0.8,0.3c-0.3,0-0.6-0.1-0.8-0.3c-0.2-0.2-0.3-0.6-0.3-1
	L38.6,23.7z M52.2,42.4l-1.8,7.3c-0.1,0.5-0.2,0.9-0.3,1.1c-0.1,0.2-0.2,0.4-0.4,0.6c-0.2,0.2-0.5,0.3-0.8,0.3
	c-0.3,0-0.6-0.1-0.8-0.2c-0.2-0.2-0.3-0.4-0.4-0.6c-0.1-0.2-0.2-0.6-0.3-1.1l-1.8-6.5l-1.7,6.5c-0.1,0.5-0.2,0.8-0.3,1.1
	c-0.1,0.2-0.2,0.4-0.4,0.6c-0.2,0.2-0.5,0.3-0.8,0.3c-0.3,0-0.5,0-0.7-0.1c-0.2-0.1-0.3-0.2-0.4-0.4c-0.1-0.2-0.2-0.4-0.3-0.7
	c-0.1-0.3-0.1-0.5-0.2-0.7l-1.8-7.3c-0.1-0.4-0.2-0.7-0.2-1c0-0.3,0.1-0.5,0.3-0.7c0.2-0.2,0.4-0.3,0.7-0.3c0.4,0,0.7,0.1,0.8,0.4
	c0.1,0.3,0.3,0.6,0.4,1.1l1.5,6.3l1.6-5.9c0.1-0.5,0.2-0.8,0.3-1c0.1-0.2,0.2-0.4,0.5-0.6c0.2-0.2,0.5-0.3,0.9-0.3
	c0.4,0,0.7,0.1,0.9,0.3c0.2,0.2,0.3,0.4,0.4,0.6c0.1,0.2,0.2,0.6,0.3,1l1.6,5.9l1.4-6.3c0.1-0.3,0.1-0.6,0.2-0.8
	c0.1-0.2,0.2-0.4,0.3-0.5c0.1-0.1,0.4-0.2,0.7-0.2c0.3,0,0.5,0.1,0.7,0.3c0.2,0.2,0.3,0.4,0.3,0.7C52.3,41.7,52.3,42,52.2,42.4z
	 M52.6,32.2c-0.1-0.2-0.3-0.4-0.4-0.6l-2.6-4l-1.8,1.7l0,2.2c0,0.5-0.1,0.8-0.3,1c-0.2,0.2-0.5,0.3-0.8,0.3c-0.2,0-0.4,0-0.5-0.1
	c-0.2-0.1-0.3-0.2-0.4-0.4c-0.1-0.1-0.1-0.3-0.1-0.5c0-0.2,0-0.4,0-0.8l0-8.1c0-0.4,0.1-0.8,0.3-1s0.5-0.3,0.8-0.3
	c0.3,0,0.6,0.1,0.8,0.3c0.2,0.2,0.3,0.6,0.3,1l0,3.8l4.3-4.5c0.2-0.2,0.4-0.4,0.5-0.5c0.1-0.1,0.3-0.2,0.6-0.2
	c0.3,0,0.6,0.1,0.8,0.3c0.2,0.2,0.3,0.4,0.3,0.7c0,0.3-0.2,0.6-0.5,1l-2.7,2.5l3.1,4.4c0.2,0.3,0.4,0.6,0.5,0.8
	c0.1,0.2,0.2,0.5,0.2,0.7c0,0.2-0.1,0.5-0.3,0.6c-0.2,0.2-0.4,0.3-0.8,0.3c-0.3,0-0.6-0.1-0.7-0.2C52.9,32.6,52.7,32.4,52.6,32.2z
	 M61.5,49.9c-0.3,0.5-0.8,0.9-1.5,1.2c-0.6,0.3-1.4,0.5-2.3,0.5c-1.1,0-2-0.2-2.7-0.6c-0.5-0.3-0.9-0.7-1.2-1.2
	c-0.3-0.5-0.5-1-0.5-1.4c0-0.3,0.1-0.5,0.3-0.7s0.4-0.3,0.7-0.3c0.2,0,0.4,0.1,0.6,0.2c0.2,0.1,0.3,0.4,0.4,0.7
	c0.1,0.3,0.3,0.6,0.5,0.9c0.2,0.2,0.4,0.4,0.7,0.6c0.3,0.1,0.7,0.2,1.1,0.2c0.7,0,1.2-0.2,1.6-0.5c0.4-0.3,0.6-0.7,0.6-1.1
	c0-0.4-0.1-0.7-0.3-0.9c-0.2-0.2-0.5-0.4-0.9-0.5c-0.3-0.1-0.8-0.2-1.4-0.4c-0.8-0.2-1.4-0.4-2-0.6c-0.5-0.2-0.9-0.6-1.3-1
	c-0.3-0.4-0.5-0.9-0.5-1.6c0-0.6,0.2-1.1,0.5-1.6c0.3-0.5,0.8-0.8,1.4-1.1c0.6-0.3,1.3-0.4,2.2-0.4c0.7,0,1.2,0.1,1.7,0.2
	c0.5,0.2,0.9,0.4,1.2,0.7c0.3,0.3,0.6,0.6,0.7,0.9s0.2,0.6,0.2,0.9c0,0.3-0.1,0.5-0.3,0.7c-0.2,0.2-0.4,0.3-0.7,0.3
	c-0.3,0-0.4-0.1-0.6-0.2c-0.1-0.1-0.3-0.3-0.4-0.6c-0.2-0.4-0.4-0.7-0.7-1c-0.3-0.2-0.7-0.3-1.3-0.3c-0.6,0-1,0.1-1.4,0.4
	c-0.3,0.3-0.5,0.6-0.5,0.9c0,0.2,0.1,0.4,0.2,0.6c0.1,0.2,0.3,0.3,0.5,0.4c0.2,0.1,0.4,0.2,0.6,0.3c0.2,0.1,0.6,0.2,1.1,0.3
	c0.6,0.1,1.2,0.3,1.7,0.5c0.5,0.2,0.9,0.4,1.3,0.6c0.3,0.2,0.6,0.6,0.8,0.9c0.2,0.4,0.3,0.8,0.3,1.4C62,48.8,61.9,49.4,61.5,49.9z"
	/>
</svg>
