<?xml version="1.0" encoding="UTF-8" standalone="no"?>
<svg
   width="432"
   height="432"
   viewBox="0 0 432 432"
   version="1.1"
   id="svg3"
   xmlns:xlink="http://www.w3.org/1999/xlink"
   xmlns="http://www.w3.org/2000/svg"
   xmlns:svg="http://www.w3.org/2000/svg">
  <defs
     id="defs7">
    <linearGradient
       id="linearGradient887">
      <stop
         style="stop-color:#313492;stop-opacity:1;"
         offset="0"
         id="stop883" />
      <stop
         style="stop-color:#40529d;stop-opacity:1;"
         offset="1"
         id="stop885" />
    </linearGradient>
    <linearGradient
       xlink:href="#linearGradient887"
       id="linearGradient889"
       x1="1529.6281"
       y1="8.2183132"
       x2="1529.6281"
       y2="1934.7924"
       gradientUnits="userSpaceOnUse" />
    <linearGradient
       xlink:href="#linearGradient887"
       id="linearGradient6175"
       gradientUnits="userSpaceOnUse"
       x1="1529.6281"
       y1="8.2183132"
       x2="1529.6281"
       y2="1934.7924" />
  </defs>
  <g
     id="layer5"
     style="display:none;fill:url(#linearGradient889);fill-opacity:1;stroke:none"
     transform="scale(0.14261956,0.22360247)">
    <rect
       style="display:inline;fill:url(#linearGradient6175);fill-opacity:1;stroke:none;stroke-width:0.264583"
       id="rect661"
       width="3029.0376"
       height="1932"
       x="0"
       y="0" />
  </g>
  <circle
     style="display:none;fill:#313492;fill-opacity:1;stroke:none"
     id="path6573"
     cx="215.72266"
     cy="211.30049"
     r="144" />
  <g
     id="MySTK"
     style="display:inline"
     transform="matrix(0.08250715,0,0,0.08250715,91.041367,136.2981)">
    <path
       id="path8741"
       style="display:inline;fill:#fdfdfd;fill-opacity:1"
       d="m 1494.0375,1427.0798 -12.9997,1.1999 c -17.03,2.03 -31.6102,4.8104 -48.0002,10.0604 -54.69,17.55 -101.4299,57.2602 -128.6898,107.6601 -13.89,25.67 -25.96,64.7 -26.31,94 V 1685 c 0,35.44 -0.84,54.0303 10.02,89.0002 21.26,68.37 74.44,122.2899 141.98,145.6599 17.03,5.89 35.0899,9.4601 52.9998,11.3001 h 9 l 12.0003,1.0397 h 648.9997 650.0001 l 11.9998,-1.0397 h 8.9999 c 20.94,-2.12 41.3505,-6.9 61.0005,-14.38 68.7799,-26.19 122.6596,-87.53 138.5796,-159.58 2.51,-11.3799 5.4003,-29.51 5.4203,-41 v -75.0001 c -0.3299,-27.64 -10.9499,-64.3503 -23.2698,-89.0003 -26.64,-53.2899 -70.4204,-90.5601 -125.7304,-111.42 -20.3899,-7.7 -41.3698,-11.1795 -62.9997,-12.6695 l -12.0003,-0.8305 h -876.9997 -289 -95.0004 z m 687.3172,102.7023 c 24.4998,-0.1451 51.5405,6.7566 71.683,19.2779 9.92,6.17 21.8,15.8898 20.67,28.9398 -1.09,12.64 -12.6203,23.4701 -25.6702,20.4701 -6.12,-1.4 -13.6199,-7.9197 -19.9999,-11.2097 -12.4299,-6.43 -31.9697,-13.1002 -45.9997,-13.2602 -20.29,-0.23 -50.94,7.6701 -50.97,33.0001 -0.01,3.12 0.4598,6.05 1.5198,9 7.67,21.4799 40.87,26.4797 60.45,30.3997 34.93,7 74.1701,16.0302 84.1101,55.6002 1.93,7.7 2.9798,17.06 2.8898,25 -0.08,6.79 -1.6697,16.5202 -3.7497,23.0002 -3.96,12.3699 -11.5802,22.5999 -21.2602,31.1298 -29.9699,26.4 -73.5601,28.8001 -110.9901,21.2701 -16.87,-3.39 -32.3798,-10.5003 -45.9998,-21.0603 -10.35,-8.0399 -16.3202,-13.5899 -15.9902,-27.3399 0.36,-14.73 15.32,-24.5001 28.99,-19.4401 l 26.9999,17.1803 c 22.0599,11.41 51.1501,14.93 74.0001,3.5 10.03,-5.0199 19.0503,-11.5899 21.4803,-23.2399 0.74,-3.54 0.3096,-6.5304 -0.5203,-10.0004 -3.69,-15.36 -19.0498,-23.7501 -32.9598,-28.3301 -31.39,-10.3399 -58.0203,-5.6998 -88.0003,-27.8298 -16.16,-11.92 -25.76,-31.8097 -26,-51.8397 -0.17,-15.04 0.3501,-26.1602 7.3701,-40.0002 6.15,-12.1099 17.0703,-22.5102 28.6303,-29.4002 16.25,-9.68 30.9096,-11.7096 48.9996,-14.3196 3.3688,-0.3125 6.8172,-0.4774 10.3172,-0.4981 z m 608.6828,2.3177 c 16.4399,-1.13 27.89,17.4804 20.33,31.9003 -3.78,7.21 -15.23,16.21 -21.33,22.04 l -13.9997,13.9201 -9.9999,9.0496 -15.0001,14.8203 -17.9999,17.17 c -1.8,1.81 -6.0104,5.66 -6.7004,8 -0.92,3.12 2.3301,6.66 4.0701,9 l 16.63,21.9997 42.37,56.0002 c 5.04,6.71 19.4302,24.7902 22.3102,31.0002 8.65,18.6699 -5.1401,35.4595 -24.6801,34.9896 -3.32,-0.08 -6.04,-0.39 -9,-2.08 -6.24,-3.55 -18.2398,-20.39 -23.1298,-26.91 l -44.0004,-57.9996 -13.7398,-18.0004 c -1.38,-1.82 -6.1902,-8.53 -7.5902,-9.54 -3.81,-2.76 -9.7298,4.3502 -12.5398,6.8202 l -14.0002,13.7201 c -8.27,8.25 -11.9798,7.9899 -11.9998,19.9999 v 42 c 0,8.01 0.9401,15.9898 -3.8499,22.9898 -7.64,11.16 -27.6599,12.3004 -37.0499,2.9104 -5.99,-6 -7.0903,-13.84 -7.1003,-21.9 v -211 c 0.01,-8.12 0.9199,-16.7705 7.1799,-22.6704 9.07,-8.56 27.03,-8.8199 35.48,0.7601 4.75,5.38 5.3302,11.11 5.3402,17.91 V 1659 c 5.83,-1.71 8.7998,-5.7999 12.9998,-9.9999 l 18.0004,-17.9999 69.9999,-69.0005 c 9.56,-9.5599 25.2397,-28.9599 38.9997,-29.8999 z m -1249.9997,1.9104 c 18.73,-0.45 23.2497,11.1097 32.0497,24.9897 l 29.9501,46.0003 43,65.9996 c 6.72,-7.39 19.4102,-27.6198 25.6702,-36.9998 l 43.9999,-66.0001 9.6599,-13.9997 c 6.81,-10.1 10.8504,-19.65 24.6703,-19.99 16.04,-0.39 24.9196,9.2197 24.9996,24.9897 v 48.0002 169 c -0.01,7.12 -1.0199,14.3501 -6.3299,19.6701 -4.59,4.61 -10.3598,6.2599 -16.6698,6.3299 -15.34,0.16 -24.81,-8.3801 -25,-24.0001 v -65.0002 -54.9997 c 0,-7.99 0.7301,-22.8703 -0.9999,-30.0002 l -23.6901,34.9999 -30.3103,46.0003 c -7.77,11.66 -16.49,25.96 -33,21.2101 -12.86,-3.7 -18.29,-16.9203 -25,-27.2103 l -33.5799,-52.9998 c -4.72,-7.54 -11.6601,-20.88 -18.4201,-26 V 1778 c -0.02,12.89 -5.7598,23.6398 -19.9998,23.9898 -17.54,0.4199 -23.8101,-10.8896 -24.0001,-26.9896 v -185.0001 -20.0003 c 0,-12.27 -1.0601,-25.16 10.9999,-32.52 4.07,-2.49 7.2803,-3.3496 12.0003,-3.4696 z m 804,0.1 h 59 113.9998 c 14.05,-0.09 24.95,5.3502 25.91,20.8902 0.94,15.44 -10.8601,22.9296 -24.9101,22.9996 h -48.9996 c -2.91,0.01 -7.1403,-0.4495 -8.9803,2.3105 -1.47,2.22 -1.0201,9.7896 -1.0201,12.6896 v 31.0002 153 c -0.01,5.82 -0.1099,9.9901 -3.6499,15.0001 -8.3,11.74 -27.3897,13.58 -38.2597,4.47 -7.2,-6.03 -8.0804,-15.6804 -8.0904,-24.4704 v -183.9996 c -0.01,-7.22 0.1504,-9.8504 -7.9996,-10.0004 h -49.0001 c -8.35,-0.01 -15.78,-1.1999 -21.47,-8.0899 -3.11,-3.76 -4.3001,-8.1199 -4.4901,-12.9098 -0.5,-12.44 5.9901,-19.9601 17.9601,-22.8901 z m -474.0465,63.0127 c 6.9987,-0.062 13.9716,2.8373 18.4066,8.8873 4.13,5.63 4.63,11.3101 4.64,17.9901 v 96.9998 c 0.02,9.64 1.7799,21.4503 8.2099,29.0003 17.18,20.1799 53.7001,18.8097 68.0801,-4.0003 8.1199,-12.89 6.7096,-28.47 6.7096,-43 v -78.9998 c 0.01,-7.06 0.6604,-13.2601 5.3904,-18.9601 8.83,-10.64 26.4197,-10.42 35.2697,0 4.75,5.58 5.3302,10.9902 5.3402,17.9602 v 127 c 0,25.8999 2.34,53.4099 -7.06,77.9998 -13.24,34.6 -49.8001,50.59 -84.9401,51 -19.0799,0.22 -51.2699,-0.91 -65.9799,-14.18 -15.48,-13.96 -5.92,-39.69 14.98,-38.78 8.79,0.38 20.3297,6.9399 28.9997,9.0599 24.57,6 58.23,-0.4301 65.8399,-28.1001 2.61,-9.48 2.1601,-13.5097 2.1601,-22.9996 l -17.9999,12.6896 c -14.28,7.79 -30.0698,9.33 -45.9998,9.31 -38.6899,-0.06 -64.8202,-31.5699 -65.0002,-68.9999 v -113.9997 c 0.01,-6.39 0.25,-11.7002 4.39,-16.9902 4.54,-5.8 11.5649,-8.8248 18.5637,-8.8873 z" />
  </g>
  <g
     id="globe"
     style="display:inline"
     transform="matrix(0.08250715,0,0,0.08250715,91.041367,136.2981)">
    <path
       id="path8715-2"
       style="display:inline;fill:#ffffff;fill-opacity:1"
       d="m 2670.0375,857.2102 c -35.1099,5.21999 -58.4298,11.73993 -86.9998,34.45991 -11.73,9.31999 -23.8398,23.3201 -31.2798,36.33008 -9.27,16.20999 -15.6904,35.14983 -15.7204,53.99981 -0.02,12.76999 0.34,23.5499 4.04,35.9999 15.94,53.7299 64.1003,87.9 117.9603,96.56 l 17,1.5301 8.9999,0.9002 11.9998,-0.9002 c 18.7,-1.29 36.6303,-4.5398 54.0003,-11.9398 18.37,-7.83 36.0398,-18.6605 49.9598,-33.1505 10.64,-11.0699 19.4302,-24.0097 25.7302,-37.9997 7.88,-17.48 9.53,-34.1499 9.31,-52.99988 -0.15,-12.11999 -4.3903,-27.88021 -9.1503,-39.0002 -18.48,-43.14996 -60.68,-71.81973 -105.8499,-80.79972 -6.75,-1.34 -18.27,-3.12 -25,-2.99 z m 3.0004,3.92999 h 17.9999 c 51.49,-0.06 105.0501,29.35002 128.2501,75.85997 6.82,13.66999 11.5696,29.61985 11.7496,44.99984 0.16,14.12998 -0.9997,25.4402 -5.3397,39.0002 -4.1,12.78 -10.7499,25.4899 -19.1099,35.9999 -10.91,13.72 -23.4802,24.5799 -38.5501,33.5499 -19.2,11.42 -49.5603,21.4198 -72.0003,21.4498 h -21.9997 c -12.57,-0.15 -29.0601,-4.02 -41.0001,-8 -54.1499,-18.06 -93.09,-61.4 -93,-119.99992 0.03,-19.26998 6.6302,-39.5197 16.4502,-55.99969 19.24,-32.27996 53.6596,-53.59004 89.5496,-62.53003 z m 6.9995,-175.1402 -14.9996,0.99994 c -18.7199,0.22 -37.6602,3.33009 -56.0002,7.00009 -61.8499,12.36998 -121.7701,42.01994 -168,85.08989 -29.51,27.48998 -52.9099,60.26989 -69.6898,96.90985 -33.12,72.30993 -30.5399,158.75054 3.9501,230.00044 20.54,42.4499 54.8496,82.9296 92.7396,110.8496 80.9399,59.6199 178.2802,80.4202 277.0001,65.8802 19.57,-2.88 41.23,-8.4699 60,-14.7299 l 31.0001,-11.0003 c 0,3.75 -0.79,13.82 1.74,16.4 1.9,1.94 5.73,1.5904 8.26,1.6004 h 33.9999 134.0001 c 1.99,0 5.8101,0.2299 7.4001,-1.0201 2.5,-1.98 1.5999,-13.5903 1.5999,-16.9803 V 1203 1043.9998 964.00007 l -3.59,-22.0002 c -4.18,-24.90998 -10.7198,-45.97995 -21.1098,-68.99993 -39.2899,-87.13991 -120.7504,-147.47984 -211.3003,-173.13982 -19.5299,-5.52999 -56.04,-12.62019 -76,-12.86019 z m 9.0005,3.99975 14.9996,1.00046 c 13.1,0.15 26.0302,1.86001 39.0002,3.73 63.8,9.2 126.1303,37.06992 175.0002,79.13988 20.48,17.62998 39.33,38.64014 54.33,61.13012 19.67,29.47997 32.5101,59.47998 40.32,93.99994 l 6.35,38.99969 V 1075 1262 c 0,2.3 0.3796,6.4098 -1.6004,7.9798 -1.89,1.5 -9.7397,1.0201 -12.3997,1.0201 h -34 -120.9999 c -1.99,0 -5.81,0.2299 -7.4,-1.0201 -1.7,-1.35 -1.5599,-4.03 -1.5999,-5.98 -0.1,-5.7599 0.4195,-8.1496 -1.0005,-13.9996 l -36.9998,14.3299 c -30.34,9.99 -61.21,15.5701 -93,17.7601 l -9.9999,0.91 h -26.9999 l -24.0001,-1.8303 c -49.09,-4.91 -94.6299,-18.0499 -137.9999,-41.8698 -44.8199,-24.6 -86.0201,-60.0802 -113.7801,-103.3002 -25.14,-39.13 -41.06,-82.4799 -44.3099,-128.9999 l -0.9101,-11.99975 v -19.00039 l 0.9101,-9.99991 c 2.4399,-34.92996 12.1996,-68.70013 27.8396,-100.0001 13.61,-27.19997 31.74,-52.48964 53.25,-73.99961 48.3899,-48.38996 108.8902,-80.58048 176.0001,-94.00047 14.56,-2.90999 37.4399,-6.82957 51.9999,-6.99957 z M 706.45249,535.93628 c -2.51,-0.0612 -5.1146,0.0636 -6.4146,0.0636 H 667.03784 513.03742 c -2.27,0 -6.44995,-0.36999 -8.08995,1.5999 -1.3,1.84 -0.5,5.31007 0,7.40007 0.86,5.20989 2.21012,13.45004 4.47001,17.99993 1.29,2.62 5.91009,9.85025 7.94009,11.69025 3.02,2.71989 5.21019,1.91003 7.45019,3.33003 3.69,2.32989 3.21978,7.19031 3.22978,10.9802 v 104.9998 c 0,2.76989 0.32005,7.28994 -1.73995,9.39994 -1.9,1.94 -5.72996,1.5899 -8.25996,1.5999 H 487.03746 354.03782 c -2.3,0 -6.41039,-0.37999 -7.98039,1.5999 -1.46,1.85 -1.01958,8.86034 -1.01958,11.40034 v 27.99984 135.99997 c 0,2.3 -0.38009,6.40988 1.59991,7.97988 1.84989,1.45989 8.85982,1.02009 11.39982,1.02009 h 30.00023 80.99971 l 15.00012,0.99994 h 16.99999 c 7.5,0 19.06997,-0.68006 25.99997,0.99994 -5.41,2.84989 -10.03017,2.00039 -16.00006,2.00039 h -29.99972 c -3.1,0.01 -6.21023,-0.2701 -8.90023,1.5999 -7.13989,4.98 -16.52948,29.70987 -4.9997,37.79976 2.67,1.87 5.80972,1.59042 8.89972,1.60042 h 41.00008 c 2.54,0.01 6.48001,-0.31999 8.40001,1.5999 1.78989,1.79 1.5799,5.05007 1.5999,7.40007 v 31.9996 c -0.19,10.01989 -4.56991,8.00003 -21.99969,8.00003 0.72,6.35989 3.11978,8.61028 6.13967,14.00017 l 16.20987,30.00016 c 0.76,2.52 0.65009,5.3796 0.65009,7.9996 V 1397 c 0.02,8.64 0.36007,8.98 8.99996,9 h 55.00026 112.99983 c 2.29989,0 6.40987,0.3801 7.97987,-1.5999 1.42,-1.8 1.02009,-7.9899 1.02009,-10.3999 0,-7.38 -0.67006,-18.12 0.99994,-25 h 2.0004 c 1.43,3.89 5.62977,12.65 9.20977,14.69 3.3,1.87 12.69019,1.31 16.79019,1.31 h 37.99975 v 31.9996 c 0,3.03 0.4899,11.4201 -1.0201,13.6901 -1.72989,2.58 -5.24987,2.29 -7.97987,2.31 h -16.00006 c 0.88,6.28 3.88031,8.8912 7.33031,14.0001 3.66989,5.44 16.58957,23.2199 18.01957,27.9999 0.76,2.51 0.65009,5.39 0.65009,8 v 170.9999 c 0,2.3 -0.3801,6.4104 1.5999,7.9804 1.85,1.46 8.86034,1.0196 11.40034,1.0196 h 27.99984 135.99997 c 6.73989,-0.01 8.85996,0.4904 8.99996,-6.9996 v -45.0003 -134.0001 c 0.02,-11.54 2.96047,-13.4796 5.96036,-23.9996 l 1.81953,-10.0004 c 1.38,-5.06 1.89002,-4.0599 2.22002,-9.9999 -2.54,-0.01 -6.47011,0.3301 -8.4,-1.5999 -1.92,-1.92 -1.58991,-5.86 -1.59991,-8.4 v -27.9999 c 0.01,-2.54 -0.32009,-6.48 1.59991,-8.4 1.91989,-1.92 5.86,-1.5899 8.4,-1.5999 h 31.00014 c 3.76,-0.01 7.6301,0.22 10.9601,-1.85 3.3,-2.06 7.2302,-7.8902 9.6702,-11.1502 5.54,-7.42 14.84,-19.3199 17.37,-27.9999 -6.88,-1.67 -17.62,-0.9999 -25,-0.9999 h -46.00032 c -2.52,-0.05 -5.40004,0.05 -6.97993,-2.3105 -1.4,-2.1 -1.0201,-8.0397 -1.0201,-10.6897 v -25.0001 c 0.01,-2.91 -0.45006,-7.1398 2.30994,-8.9798 2.22,-1.47 9.79018,-1.0201 12.69018,-1.0201 h 31.00013 52 c 2.62,0 6.3601,0.2401 8.6201,-1.1699 2.63,-1.65 6.2697,-8.8903 7.9597,-11.8303 l 16.4202,-26.9999 c -6.81,-1.94 -31.3501,-1 -40.0001,-1 h -81.00024 c -2.19,0 -5.83997,0.2089 -7.68997,-1.02 -2.98,-1.99 -2.98,-7.9707 0,-9.9596 1.85,-1.23 5.49997,-1.0201 7.68997,-1.0201 h 94.00044 c 22.06,0 44.1196,0.8196 65.9996,-2.4304 33.16,-4.91 65.5,-16.2607 94,-33.9896 40.7689,-25.38 71.8403,-58.321 94.6903,-100.5799 47.19,-87.24 43.039,-200.26133 -12.0199,-283.00034 -12.01,-18.03989 -25.5404,-35.24015 -41.6704,-49.83004 -37.5789,-33.99956 -84.45,-58.0802 -135,-64.89009 -28.85,-3.89 -62.5101,-2.27997 -92.0001,-2.27997 h -67.99994 c -8.55989,0.02 -8.67991,0.07 -9.99991,9.99991 l -24.00008,1.00045 c -2.32,0.05 -5.23006,-0.15006 -6.29006,2.30994 -1.34,2.6 0.41,7.37973 0,11.68973 l -3.70985,25.99996 13.00024,0.99994 h 20.99975 l 0.99994,36.00038 c -0.02,3 0.10988,7.21996 -1.85001,9.68985 -2.18,2.74 -6.01994,2.29994 -9.14983,2.30994 H 908.0376 c -10.80989,-0.02 -10.97985,-2.85983 -10.99985,-12.99972 v -78.00041 c 0,-2.3 0.3801,-6.40988 -1.5999,-7.97988 -1.59,-1.24989 -5.41007,-1.02009 -7.40007,-1.02009 H 857.03761 724.03746 c -2.53,-0.01 -6.35996,0.3401 -8.25996,-1.5999 -1.94,-1.98 -1.72995,-5.82011 -1.73995,-8.4 v -26.99991 -122.0003 c 0,-2.5 0.38006,-7.29979 -1.73994,-9.00979 -0.92,-0.745 -3.33523,-0.99243 -5.84512,-1.05368 z m -162.93993,7.93647 c 3.4375,-0.008 6.935,0.12712 9.525,0.12712 h 34.99993 113.00034 c 2.3,0 6.40998,-0.3801 7.97987,1.5999 1.25,1.59 1.0201,5.41007 1.0201,7.40007 v 27.00042 118.99997 c 0.01,2.54 -0.3201,6.48 1.5999,8.4 1.92,1.92 5.86011,1.5899 8.4,1.5999 h 31.00018 132.99963 c 2.3,0 6.4105,-0.38009 7.98039,1.59991 1.42,1.79989 1.01958,7.98988 1.01958,10.39988 v 26.9999 130.00033 c 0,2.3 0.3801,6.40988 -1.5999,7.97988 -1.59,1.25 -5.41007,1.02009 -7.40007,1.02009 H 853.03785 721.03764 c -2.76989,0.01 -6.43991,-0.28999 -8.68991,1.5999 -2.27989,1.93 -2.25993,4.67007 -2.30993,7.40007 v 18.99987 90.00024 388 c 0,2.3 0.38009,6.4099 -1.59991,7.9799 -1.79989,1.42 -7.9905,1.0201 -10.40039,1.0201 H 671.03759 541.03778 c -1.99,0 -5.81007,0.2299 -7.40007,-1.0201 -1.7,-1.35 -1.5599,-4.03 -1.5999,-5.98 v -21.0002 -89.9997 -386.00023 c -0.01,-3.18 0.38006,-7.12995 -2.30994,-9.39995 -2.25,-1.88989 -5.92053,-1.5899 -8.69042,-1.5999 H 491.03773 358.03758 c -2.3,0 -6.40988,0.3801 -7.97988,-1.5999 -1.42,-1.8 -1.02009,-7.9904 -1.02009,-10.4004 V 847.99992 718.0001 c 0,-2.3 -0.3801,-6.40987 1.5999,-7.97987 1.59,-1.25 5.41007,-1.0201 7.40007,-1.0201 h 31.00017 133.00015 c 2.54,-0.01 6.48001,0.3201 8.40001,-1.5999 1.91989,-1.92 1.5899,-5.86 1.5999,-8.4 v -28.00036 -93.99995 -25.99996 c 0.07,-3.38 -0.29006,-4.21013 2.30994,-6.40013 2.34989,-0.57 5.72731,-0.71958 9.16481,-0.72708 z M 987.3325,708.86112 c 4.84243,-0.004 9.80494,0.13901 12.7052,0.13901 h 48.0001 62.9998 l 12.0003,0.91003 c 44.06,3.21992 90.8796,20.92988 125.9996,47.73972 31.7192,24.21976 57.4108,53.81042 75.74,89.3501 54.96,106.50912 34.6794,241.54072 -53.7398,323.90992 -32.64,30.41 -75.1808,53.1503 -119,62.0903 -29.42,5.99 -51.551,4.9997 -81.0002,4.9997 h -96.9998 c -2.53992,0.01 -6.48,-0.3201 -8.4,1.5999 -2.63,2.62 -1.5999,17.2102 -1.5999,21.4002 v 73.0002 315.9999 c 0,2.3 0.38009,6.4098 -1.59991,7.9798 -1.79992,1.42 -7.99047,1.0201 -10.40039,1.0201 H 925.03759 795.03778 c -2.3,0 -6.40988,0.3801 -7.97988,-1.5999 -1.17,-1.48 -1.01009,-4.5801 -1.02009,-6.4001 v -24.0001 -105.9997 -453.0003 c 0,-1.99 -0.22991,-5.81 1.02009,-7.4 1.99,-2.52 14.49986,-1.5999 17.97978,-1.5999 h 54.99975 245.00007 c 11.5392,-0.02 20.7201,-2.62 31.0001,-7.75 52.88,-26.4392 64.06,-100.38055 20.96,-141.08023 -27.09,-25.58984 -52.7101,-23.16965 -86.9601,-23.16965 h -87.99977 c -1.99,0 -5.81006,0.22991 -7.40006,-1.02009 -1.7,-1.35 -1.55991,-4.03 -1.59991,-5.98 v -17.99993 -79.00035 -53.9998 c 0,-3.09 -0.39003,-15.65988 0.59997,-17.68988 0.74,-1.51 0.95997,-1.06997 1.70997,-1.70997 2.42,-0.585 7.1423,-0.73523 11.9848,-0.73898 z m -26.25059,137.1105 c 2.19699,-0.0141 4.69102,0.14332 6.02598,1.62832 1.82,2.03 1.8996,6.77995 1.9296,9.39995 v 25.00002 c 0.01,2.53 -0.33958,6.35996 1.60042,8.25996 1.82,1.78 5.02955,1.69995 7.39955,1.73995 h 26.00044 78.9999 c 7.26,0 26.6201,-1.47957 32.0001,2.00039 -6.81,1.94 -31.3502,0.99994 -40.0002,0.99994 H 993.03758 803.03781 745.03773 c -7.48996,0 -23.58024,0.82006 -30.00024,-0.99994 3.96,-2.91 9.26022,-2.00039 14.00018,-2.00039 h 32.00011 125.00013 c 2.76996,0 7.28994,0.32005 9.39994,-1.73995 1.81,-1.77 1.5799,-4.92002 1.5999,-7.26002 v -24.00009 c 0.01,-8.71996 -0.77999,-12.92972 8.99997,-12.99972 h 52.99987 c 0.61246,0 1.31197,-0.0237 2.04432,-0.0284 z m 170.19939,52.557 c 5.1506,-0.24265 16.4658,8.38194 19.7565,11.09131 19.5195,16.0299 26.8599,38.11032 28.6799,62.38017 0.24,3.24 -0.3702,4.89003 -0.5902,8.00003 -2.84,39.03997 -33.0705,74.94007 -74.09,75.00007 H 882.03763 792.03744 c -2.26995,0 -5.76994,-0.2104 -7.71994,1.0196 -4.41995,2.78 -3.2799,13.2603 -3.2799,17.9803 h -66.00011 v -39.0002 l 1.02009,-7.4001 5.98,-1.5999 h 16.00006 73.00019 317.99967 L 1122.2374,999 c -0.59,-2.95995 -1.2198,-9.61024 -2.9398,-11.69024 -2.25,-2.72 -6.0899,-2.29993 -9.2599,-2.30993 h -82.0002 -304.00004 c -6.73995,-0.01 -8.85997,0.49037 -8.99997,-6.99958 V 945.0002 c 0,-1.99 -0.22986,-5.81007 1.02009,-7.40007 1.35,-1.69995 4.03,-1.5599 5.98,-1.5999 h 15.00012 69.99986 304.00004 c 2.64,-0.01 6.3803,0.32958 8.4403,-1.60042 1.98,-1.85 2.3697,-5.83 2.8097,-8.4 l 3.6199,-17 c 0.67,-2.65995 1.6102,-9.31963 4.4302,-10.29963 0.2844,-0.0994 0.6003,-0.15539 0.9436,-0.17156 z M 715.03749,1116.0001 h 66.00011 v 38.9997 c -0.01,6.74 0.48989,8.86 -7.00009,9 h -50.00005 c -2.3,0 -6.40988,0.38 -7.97988,-1.6 -1.49998,-1.8898 -1.02009,-9.7397 -1.02009,-12.3997 z m 11.47527,88.8726 c 3.4375,-0.01 6.935,0.1271 9.525,0.1271 h 35.99987 c 2.3,0 6.40989,-0.3795 7.97987,1.6005 1.25,1.59 1.0201,5.4095 1.0201,7.3995 V 1245 c -0.01,6.74 0.48989,8.8599 -7.00009,8.9999 h -50.00005 c -2.3,0 -6.40988,0.3801 -7.97988,-1.5999 -1.24998,-1.59 -1.02009,-5.41 -1.02009,-7.4 v -31.0002 c 0.01,-3.72 -0.68006,-5.88 2.30994,-8.4 2.35,-0.57 5.72783,-0.7196 9.16533,-0.7271 z m 47.52113,90.0989 c 2.19984,-0.014 4.80613,0.1433 5.98361,1.6283 1.5,1.89 1.0201,9.7403 1.0201,12.4003 v 34 H 715.03749 V 1304 c 0.01,-6.74 -0.48989,-8.86 7.00009,-9 h 50.00005 c 0.575,0 1.26298,-0.024 1.99626,-0.028 z M 693.03766,39 c 3.27,-4.85 19.88,-7.84 26,-9.37 24.44,-6.11 49.14,-11.59 74,-15.71 30.26,-5.01 60.43,-8.91 91,-11.01 0,0 26,-1.95 26,-1.95 0,0 14,0 14,0 0,0 12,-0.96 12,-0.96 0,0 41,0 41,0 0,0 12,0.96 12,0.96 0,0 14.00004,0 14.00004,0 0,0 11,1 11,1 31.41,1.37 62.93,4.85 94,9.96 27.9,4.59 55.57,10.1 83,16.95 0,0 19,5.01 19,5.01 4.02,1.07 7.6,1.55 10,5.12 0,0 -527.00004,0 -527.00004,0 z m -207,87 c 2.87,-5.52 6.8,-6.49 12,-9.31 0,0 28,-14.94 28,-14.94 0,0 29,-13.67 29,-13.67 2.12,-0.15 4.81,-0.08 7,0 0,0 128,0 128,0 0,0 554.00004,0 554.00004,0 0,0 107,0 107,0 10.42,-0.06 9.88,1.52 19,5.5 0,0 28,14 28,14 0,0 22,11.73 22,11.73 4.56,2.47 8.53,4.01 11,8.69 0,0 -626.00004,0 -626.00004,0 0,0 -203,0 -203,0 0,0 -97,0 -97,0 0,0 -19,-2 -19,-2 z m -134,92 c 2.06,-6.87 13.23,-13.9 19,-18.35 5.35,-4.12 26.19,-20.35 31,-21.95 3.61,-1.2 21.94,-0.71 27,-0.7 2.19,0 6.52,-0.37 7.94,1.6 1.61,2.23 -0.88,9.73 -1.57,12.4 0,0 -4.95,18 -4.95,18 -0.73,2.62 -1.29,6.41 -3.72,7.98 -1.91,1.23 -5.46,1.02 -7.7,1.02 0,0 -67,0 -67,0 z m -96,90 c 1.7,-6.27 5.54,-9.52 10,-14 0,0 17,-17 17,-17 2.39,-2.39 7.21,-7.58 10,-8.98 2.43,-1.21 5.35,-1.01 8,-1.02 0,0 112,0 112,0 -0.37,7.87 -4.87,21.07 -7.34,29 -0.86,2.74 -2.17,8.61 -4.17,10.4 -2.14,1.92 -5.78,1.59 -8.49,1.6 0,0 -137,0 -137,0 z m -74,90 c 0.92,-6.05 4.29,-9.22 7.87,-14 0,0 13.73,-18 13.73,-18 1.87,-2.33 4.95,-6.61 7.49,-7.98 2.27,-1.22 5.38,-1.01 7.91,-1.02 0,0 166,0 166,0 -0.2,8.82 -5.13,20.4 -8,29 -0.9,2.71 -2.48,8.61 -4.51,10.4 -2.16,1.92 -5.77,1.59 -8.49,1.6 0,0 -182,0 -182,0 z M 800.71598,158.99701 v 5.2e-4 c -19.27277,0.22367 -37.61214,2.11245 -56.67819,6.87245 l -17.99994,5.21002 -15.00011,5.38985 c -2.66,0.6 -5.29013,0.5302 -8.00003,0.5302 H 570.03756 c -2.14,0 -6.54,-0.3801 -7.66,1.5999 -1.46,1.8 -0.08,7.21004 0,9.39994 l 0.65991,21.00027 c 0,1.99 -0.22991,5.81007 1.02009,7.40007 1.99,2.52 14.5003,1.5999 17.9803,1.5999 h 59.00001 c -3.2999,6.9799 -9.6503,10.66988 -14.9903,16.00988 L 608.28742,254 c -9.7299,11.7699 -8.03009,12.98024 -19.24999,13.00024 H 566.0378 c -2.65,0.01 -6.38031,-0.3301 -8.44031,1.5999 -1.9,1.77 -2.46003,5.90001 -2.96003,8.40001 l -4.24987,19.99981 c -0.48,2.08 -1.91999,6.79006 -1.30999,8.71006 0.79,2.52 3.83984,2.24978 5.95984,2.28978 6.1599,0.1 10.89009,-0.48996 16.99999,0.99994 l -12.99972,29.0003 c -1.21,3.04 -5.20985,13.9702 -6.69985,15.8502 -4.5799,5.8099 -12.73019,1.31977 -16.79019,4.16977 -2.23,1.56 -3.19999,6.42981 -3.92999,8.97981 l -5.00021,17.99994 c -0.64,2.2999 -2.4598,7.69004 -2.0898,9.85004 1.21,7.2299 15.6899,-1.60986 15.6099,8.17004 l -4.0597,29.98009 c -0.19,3.9999 0.10954,9.59037 -3.34036,12.40027 -2.93,2.39 -10.86988,1.52991 -14.69988,1.59991 -7.7799,0.15 -7.15985,2.44988 -8.74985,11.99978 l -4.24987,26.9999 17.99993,1.00046 20.99975,2.99982 h 81.00023 75.00007 l 18.99987,-2.99982 h 161 l 17.99993,2.99982 h 56.0002 102.99991 l 17.9999,-2.99982 h 78.9999 159.0001 475.9999 c -1.66,-6.9899 -10.9098,-21.39046 -15.0498,-28.00036 -1.57,-2.52 -5.2001,-8.80988 -7.2801,-10.39988 -2.49,-1.91 -5.6998,-1.5899 -8.6698,-1.5999 h -134.0001 -547.0002 c -2.99,0 -7.1599,0.31005 -9.5699,-1.73995 -2.95,-2.5 -2.2798,-6.81036 -2.5198,-10.26036 l -2.3404,-18.99987 c -0.47,-3.18 -2.8499,-13.26 -1.4599,-15.69 1.59,-2.7499 6.1499,-2.29993 8.8899,-2.30993 h 224.0003 177.0001 259.9996 c -0.92,-6.05 -4.2898,-9.22028 -7.8698,-14.00018 l -13.7299,-17.99994 c -1.87,-2.33 -4.95,-6.60987 -7.49,-7.97987 -2.27,-1.22 -5.3801,-1.0101 -7.9101,-1.0201 h -137.9999 -379.0001 -119 c -3.31,-0.01 -6.8802,0.41007 -9.3002,-2.30993 -1.8,-2.02 -5.2696,-12.49 -6.5096,-15.69 l -13.1905,-30.00024 24.0001,-0.99994 h 41.0001 134.0001 429.0002 c -1.7,-6.2699 -5.5414,-9.51966 -10.0004,-13.99966 l -17,-16.99999 c -2.39,-2.39 -7.21,-7.58043 -10,-8.98033 -2.429,-1.21 -5.35,-1.00958 -8,-1.01958 h -138.9998 -461.0002 c -2.37,0 -5.7798,0.12999 -7.9598,-0.74001 -4.13974,-1.6499 -10.93026,-11.48005 -14.17016,-15.26005 l -30.86995,-32.00011 23.00014,-0.99994 h 40.00017 127.9999 410.9997 c -1.86,-6.2099 -8.1397,-9.7103 -12.9997,-13.6002 l -22.0002,-16.77004 c -8.83,-6.6199 -11.6511,-10.60984 -23.0001,-10.62984 H 1329.0377 898.03769 c -11.4899,-0.02 -22.07015,-5.72993 -33.00005,-8.85993 -15.9199,-4.5599 -39.5204,-8.94001 -56.0002,-9.14001 -2.79625,-0.0325 -5.56818,-0.0351 -8.32146,-0.003 z m -1.80971,3.82148 c 16.65813,-0.0215 36.76634,2.59265 51.13125,5.7614 C 959.42653,192.69971 1034.0479,292.0309 1055.2379,398 c 3,14.98982 4.8396,29.78001 5.8896,44.99983 l 0.91,10.00043 v 23.99957 c 0,2.29991 0.3801,6.41039 -1.5999,7.98039 -1.8,1.42 -7.9899,1.01957 -10.3999,1.01957 h -25 -120.99986 c -7.72991,-0.02 -8.93997,0.12997 -8.99997,-8.00003 -0.12,-18.36982 0.22962,-30.54977 -3.88038,-48.99959 -7.14991,-32.02973 -19.60003,-60.51022 -43.11985,-84.00004 -12.23991,-12.22991 -28.05995,-22.79015 -45.99977,-23.00015 -22.24982,-0.25 -41.22011,12.60996 -55.27002,28.99978 -20.09982,23.44982 -31.80008,50.8705 -37.72999,81.00023 -1.18,6.00991 -2.93034,17.05023 -3.00034,23.00014 l -0.99993,17 c -0.03,2.7 0.4999,10.47976 -1.0201,12.39976 -1.57,1.98 -5.67987,1.5999 -7.97987,1.5999 H 667.03784 548.03787 c -2.3,0 -6.4104,0.3801 -7.9804,-1.5999 -1.24991,-1.59 -1.01957,-5.41015 -1.01957,-7.40006 v -26.99991 l 0.9095,-11.99978 c 2.57,-35.08973 11.1406,-69.40025 24.29051,-101.99998 27.89973,-69.14937 82.52061,-129.96067 152.79998,-157.1904 19.32982,-7.49 38.44019,-12.05995 59.00001,-14.52986 l 11.99979,-0.99994 c 3.36366,-0.31125 7.02446,-0.45652 10.86858,-0.46147 z m 1.26866,163.20605 c 12.60157,-0.13864 25.10639,4.41264 36.86287,13.64568 5.64992,4.43 12.95012,10.25977 15.00012,17.32969 H 749.03748 c 1.81,-8.51992 11.13002,-14.93996 17.99994,-19.64996 10.82336,-7.42961 22.01848,-11.20307 33.13751,-11.32541 z m 71.03287,71.95944 c 2.26406,0.001 4.70003,0.17592 6.32003,1.61592 2.06,1.82 3.92002,8.58034 4.84002,11.40034 l 5.21983,19.99981 2.44998,14.00018 c -6.91992,3.20992 -16.40016,1.99988 -24.00008,1.99988 h -46.99972 -48.00017 -50.00005 c -2.78992,-0.01 -7.26002,0.44006 -8.94002,-2.30994 -1.58,-2.6 0.70997,-11.55006 1.33997,-14.69006 l 5.92987,-22.00021 c 0.87,-2.6 1.96019,-6.62 4.09019,-8.4 2.27,-1.91 5.77984,-1.5899 8.57984,-1.5999 h 137.00042 c 0.68,0.002 1.41528,-0.0165 2.16989,-0.016 z m 170.2242,69.50118 c -0.642,0.2428 -1.3745,0.3811 -2.1301,0.45734 0.7555,-0.0762 1.4882,-0.21463 2.1301,-0.45734 z M 124.03766,487 c 1.66,-6.99 10.91,-21.39 15.05,-28 1.57,-2.52 5.2,-8.81 7.28,-10.4 2.49,-1.91 5.7,-1.59 8.67,-1.6 0,0 199,0 199,0 -0.45,8.23 -6.23,20.08 -9.4,28 -1.05,2.63 -3.12,8.68 -5.1,10.4 -2.21,1.93 -5.74,1.59 -8.5,1.6 0,0 -207,0 -207,0 z m -45.000001,89 c 0,0 11.74,-27 11.74,-27 0,0 5.9,-11.26 5.9,-11.26 0,0 9.360001,-1.74 9.360001,-1.74 0,0 210,0 210,0 -0.44,7.89 -9.01,21.74 -13.15,29 -1.64,2.88 -4.51,8.52 -7.06,10.4 -2.55,1.89 -5.78,1.59 -8.79,1.6 0,0 -141,0 -141,0 0,0 -44,0 -44,0 -6.610001,0 -16.940001,0.72 -23.000001,-1 z M 879.03766,536 c 0,0 725.00004,0 725.00004,0 0,0 203,0 203,0 0,0 9.36,1.74 9.36,1.74 0,0 5.9,11.26 5.9,11.26 0,0 11.74,27 11.74,27 0,0 -25,1 -25,1 0,0 -48,0 -48,0 0,0 -155,0 -155,0 0,0 -506,0 -506,0 0,0 -188.00004,0 -188.00004,0 0,0 -8.59,-1.6 -8.59,-1.6 0,0 -7.72,-14.4 -7.72,-14.4 0,0 -16.69,-25 -16.69,-25 z M 46.037659,667 c 0.2,-8.71 4.83,-19.57 7.67,-28 0.91,-2.71 3.1,-9.59 5.03,-11.4 2.07,-1.95 5.63,-1.59 8.3,-1.6 0,0 183.000001,0 183.000001,0 -1.68,5.24 -5.82,7.46 -10,10.8 0,0 -20,16.28 -20,16.28 -3.74,3.11 -13.12,11.75 -17,13.19 -3.02,1.11 -12.3,0.73 -16,0.73 0,0 -33,0 -33,0 0,0 -108.000001,0 -108.000001,0 z M 920.03766,626 c 0,0 478.00004,0 478.00004,0 0,0 146,0 146,0 0,0 45,0 45,0 0,0 24,1 24,1 -2.62,4.88 -6.39,8.76 -9.92,13 -11.03,13.27 -8.61,11.79 -23.08,21.52 -2.41,1.62 -5.28,4.04 -8,4.92 -2.06,0.67 -4.82,0.56 -7,0.56 0,0 -97,0 -97,0 0,0 -398,0 -398,0 0,0 -132.00004,0 -132.00004,0 -2.65,-0.01 -6.38,0.33 -8.44,-1.6 -2.05,-1.92 -2.79,-7.59 -3.44,-10.4 -1.72,-7.47 -5.97,-22.33 -6.12,-29 z m 852.00004,1 c 0,0 26,-1 26,-1 0,0 48,0 48,0 0,0 7.59,1.02 7.59,1.02 0,0 4.72,8.98 4.72,8.98 0,0 7.69,26 7.69,26 -12.76,1.68 -35,0.23 -47,-4.46 -8.96,-3.5 -18.87,-10.8 -27,-16.21 -6.38,-4.24 -15.14,-8.59 -20,-14.33 z M 22.037659,756 c 0,0 5,-27 5,-27 0,0 3.84,-11.4 3.84,-11.4 0,0 8.16,-1.6 8.16,-1.6 0,0 108.000001,0 108.000001,0 -1.88,6.41 -8.96,11.86 -13.42,17 0,0 -13.73,15 -13.73,15 -2.02,2.28 -5.19,6.26 -7.94,7.42 -5.17,2.17 -22.510001,1.58 -28.910001,1.58 0,0 -47,0 -47,0 0,0 -14,-1 -14,-1 z m 55,49 c 0,0 -7.08,27 -7.08,27 -0.4,2.4 -0.97,11.17 -1.94,12.4 -1.57,1.98 -5.68,1.6 -7.98,1.6 0,0 -44,0 -44,0 -2.3,0 -6.4200003,0.38 -8.0100003,-1.6 -1.89,-2.43 -0.38,-9.4 0,-12.4 0,0 2.6000003,-19 2.6000003,-19 0.4,-2.38 0.68,-5.5 2.84,-6.98 1.81,-1.24 5.41,-1.02 7.57,-1.02 0,0 56,0 56,0 z m 35.000001,131 c 0,0 -50.000001,0 -50.000001,0 0,0 -53.0000003,0 -53.0000003,0 -2.3,0 -6.41,0.38 -7.99,-1.6 -2.09,-2.66 -0.4899999,-11.11 0,-14.4 0,0 0,-17 0,-17 0.37,-2.06 0.82,-5.64 2.57,-6.98 1.65,-1.26 5.38,-1.02 7.4200003,-1.02 0,0 55,0 55,0 2.5,0 5.67,-0.2 7.91,1.02 2.56,1.4 5.26,5.61 7.18,7.98 4.07,5 8.12,9.5 12.91,13.83 5.27,4.77 15.980001,11.62 18.000001,18.17 z M 1.0376587,985 c 0,0 178.0000013,0 178.0000013,0 11.35,0.02 12.62,2.98 22,8.81 0,0 29,18.5 29,18.5 5.65,3.63 13.68,7.75 18,12.69 -6.02,1.71 -15.5,1 -22,1 0,0 -40,0 -40,0 0,0 -130.000001,0 -130.000001,0 0,0 -46,0 -46,0 -2.1400003,-0.04 -4.7700003,0.04 -6.4000003,-1.6 -2,-1.99 -2.59,-16.94 -2.6,-20.4 0,0 0,-5 0,-5 -0.03,-6.34 -1.0299999,-7.47 0,-14 z m 9.2900003,89.74 c 5.29,-1.44 24.94,-0.74 31.71,-0.74 0,0 65.000001,0 65.000001,0 0,0 210,0 210,0 14.39,0.02 21.23,6.69 33,14.34 0,0 12.57,8.42 12.57,8.42 3.35,3.43 3.31,15.29 -0.88,18.07 -2.11,1.39 -6.2,1.17 -8.69,1.17 0,0 -284.000001,0 -284.000001,0 0,0 -39,0 -39,0 -3.91,0 -12.65,0.74 -15.57,-1.74 -3.1,-2.63 -3.81,-13.99 -4.5100003,-18.26 -0.6,-3.66 -2.77,-16.74 -1.35,-19.57 0.69,-1.37 1.29,-1.33 1.7200003,-1.69 z m 14.32,90.28 c 4.4,-1.88 17.9,-1.02 23.39,-1.02 0,0 53.000001,0 53.000001,0 0,0 185,0 185,0 0,0 58,0 58,0 3.48,0 15.99,-0.92 17.98,1.6 1.25,1.59 1.02,5.41 1.02,7.4 0,0 0,25 0,25 -0.14,7.49 -2.26,6.99 -9,7 0,0 -267.000001,0 -267.000001,0 0,0 -47,0 -47,0 -1.95,-0.01 -4.85,0.14 -6.49,-1.02 -2.91,-2.07 -5.85,-16.96 -6.72,-20.98 -1.04,-4.81 -4.89,-13.82 -2.18,-17.98 z m 25.03,90 c 4.47,-1.94 16.89,-1.02 22.36,-1.02 0,0 50.000001,0 50.000001,0 0,0 175,0 175,0 0,0 57,0 57,0 2.12,0 5.74,-0.23 7.49,1.02 2.11,1.51 2.35,4.62 2.49,6.98 0,0 0,17 0,17 0,0 0.85,9 0.85,9 0.58,7.46 -2.72,6.99 -8.83,7 0,0 -249,0 -249,0 0,0 -33.000001,0 -33.000001,0 -3.33,0 -9.84,0.67 -12.35,-1.6 -2.27,-2.05 -7.07,-16.67 -8.32,-20.4 -1.51,-4.52 -6.15,-13.86 -3.69,-17.98 z m 35.66,88.72 c 5.13,-1.4 22.310001,-0.74 28.700001,-0.74 0,0 58,0 58,0 0,0 186,0 186,0 2.4,0 6.52,-0.24 8.52,1.17 2.42,1.73 2.32,5.19 2.5,7.83 0,0 1.91,17 1.91,17 0.29,3.12 1.98,11.9 0,14.26 -1.63,2.12 -6.43,1.74 -8.93,1.74 0,0 -163,0 -163,0 0,0 -90,0 -90,0 -2.79,-0.04 -5.41,-0.01 -7.79,-1.74 -4.130001,-3.01 -10.800001,-19.82 -13.450001,-25.26 -1.94,-3.96 -6.54,-10.71 -2.46,-14.26 z M 1485.0377,1384 c 0,0 10.32,-28 10.32,-28 1.01,-2.75 3.15,-9.49 5.19,-11.26 2.38,-2.07 6.51,-1.74 9.49,-1.74 0,0 310,0 310,0 2.54,0 8.23,-0.52 9.32,2.43 1.09,2.92 -3.67,11.69 -5.06,14.57 -2.67,5.53 -8.45,21.1 -13.36,23.83 -2.51,1.38 -6.1,1.17 -8.9,1.17 0,0 -215,0 -215,0 0,0 -67,0 -67,0 -8.59,0 -27.64,0.79 -35,-1 z m -332.02,-30.08 c 1.47,-0.28 2.04,-0.76 3.61,0 2.14,1.39 5.31,9.52 6.41,12.08 4.23,9.89 15.41,35.21 15.79,45 0.35,9.25 -7.84,7.29 -13.79,9.97 -5.02,2.25 -7.96,6 -9.93,11.03 -3.03,7.73 -2.63,11.25 -3.16,19 0,0 -0.73,7 -0.73,7 0,0 0.5,8 0.5,8 -1.73,23.13 -8.35,51.02 -33.68,58.78 -8.56,2.62 -11.89,-2.21 -16.33,-8.78 -6.85,-10.14 -13.14,-23.58 -13.63,-36 -0.19,-4.76 0.4,-9.86 3.1,-13.91 2.51,-3.77 5.62,-5.07 8.5,-10.09 2.61,-4.57 3.52,-10.79 3.32,-16 -0.5,-12.97 -6.16,-26.1 -2.47,-39 2.88,-10.03 9.8,-11.2 16.51,-16.38 10.12,-7.82 26.09,-26.31 35.98,-30.7 z M 128.03766,1434 c 0,0 27,-1 27,-1 0,0 51,0 51,0 0,0 167,0 167,0 0,0 8.16,1.6 8.16,1.6 0,0 4.5,12.4 4.5,12.4 0,0 9.34,26 9.34,26 0,0 -26,1 -26,1 0,0 -49,0 -49,0 0,0 -160,0 -160,0 0,0 -8.68,-1.6 -8.68,-1.6 0,0 -8,-11.4 -8,-11.4 0,0 -15.32,-27 -15.32,-27 z m 60,89 c 0,0 235,0 235,0 2.63,0.01 5.6,-0.19 8,1.02 3.04,1.54 5.88,5.4 8.15,7.98 0,0 15.94,18 15.94,18 4.62,4.96 8.44,7.08 9.91,14 0,0 -239,0 -239,0 -2.82,0 -6.31,0.22 -8.83,-1.17 -2.52,-1.4 -5.52,-5.52 -7.37,-7.83 0,0 -13.43,-17 -13.43,-17 -3.8,-5.05 -7.47,-8.57 -8.37,-15 z m 75,90 c 0,0 247,0 247,0 2.11,0 5.04,-0.12 7,0.6 3.78,1.37 11.87,9.34 15,12.39 0,0 16,14.43 16,14.43 4.48,3.88 10.25,7.75 12,13.58 0,0 -250,0 -250,0 -2.45,0 -5.72,0.13 -8,-0.74 -3.5,-1.33 -7.33,-5.59 -10,-8.26 0,0 -18,-18 -18,-18 -4.32,-4.32 -9.24,-8.01 -11,-14 z m 97,90 c 7.13,-1.73 21.1,-1 29,-1 0,0 52,0 52,0 0,0 169,0 169,0 12.96,0.02 15.33,4.88 25,12.92 0,0 16,13.25 16,13.25 2.23,2.02 12.93,11.55 9.35,14.81 -1.38,1.25 -5.53,1.02 -7.35,1.02 0,0 -231,0 -231,0 -3.03,0 -6.09,0.12 -9,-0.85 -4.02,-1.34 -10.4,-6.15 -14,-8.73 0,0 -23,-17.05 -23,-17.05 -5.42,-4.07 -12.42,-8.6 -16,-14.37 z m 134,90 c 0,0 21,-1 21,-1 0,0 38,0 38,0 0,0 125,0 125,0 0,0 8.51,1.6 8.51,1.6 0,0 7.94,14.4 7.94,14.4 0,0 17.55,25 17.55,25 0,0 -132,0 -132,0 -2.67,0 -5.38,0.07 -8,-0.53 0,0 -42,-19.22 -42,-19.22 -8.34,-4.17 -30.47,-14.34 -36,-20.25 z M 1684.5618,682.88545 c -47.6405,-0.12539 -95.799,10.39948 -136.524,32.42438 -25.3,13.6799 -40.4908,25.01002 -62.0003,43.96992 -7.4,6.52 -13.93,14.17017 -20.25,21.72012 -31.1095,37.20985 -50.9702,82.60048 -55.7097,131.00028 v 8.99996 l -1.0403,9.99991 V 1042 1266.0002 c 0,2.3 -0.3796,6.4099 1.6004,7.9799 1.48,1.17 4.5796,1.0101 6.3996,1.0201 h 22.0002 63.9998 c 8.5395,0 26.6004,-0.8 33.9999,1 -4.4095,5.8995 -10.8497,11.4598 -11.9997,18.9998 h 318.0002 c 2.25,0 5.6799,0.2199 7.6099,-1.0201 4.47,-2.88 4.3399,-13.4498 9.5999,-17.3798 2.52,-1.89 5.8202,-1.5899 8.7902,-1.5999 h 80.9997 c 1.99,0 5.81,0.2299 7.4,-1.0201 2.53,-2.01 1.5999,-15.4002 1.5999,-18.9802 v -60 -262.99994 c 0.07,-43.2798 42.7806,-73.20977 83.0001,-74.95977 45.12,-1.95995 89.9302,31.80029 90.0002,78.96004 v 329.99997 c 0,2.3 -0.3801,6.4099 1.5999,7.9799 1.85,1.46 8.8598,1.0201 11.3998,1.0201 h 29.0003 136.9999 c 1.99,0 5.8101,0.2299 7.4001,-1.0201 2.53,-2.01 1.5999,-15.4002 1.5999,-18.9802 v -60 -264.99982 l -0.91,-12.0003 c -6.91,-100.5895 -76.1804,-181.52974 -169.0899,-216.57954 -25.24,-9.52 -64.0802,-18.38007 -91.0002,-18.42007 h -27.9998 l -12.0003,0.91002 c -38.24,2.8 -75.9405,13.78008 -110,31.35003 l -27.9999,16.7597 c -2.92,2.02 -12.5001,9.52994 -14.8301,10.33994 -3.21,1.12995 -5.73,-1.46001 -8.17,-3.21996 l -17,-11.7197 c -22.77,-14.16995 -47.1597,-25.62024 -72.9997,-32.99024 -26.4937,-7.55995 -54.8921,-11.46928 -83.476,-11.54451 z m 348.4759,4.11448 h 24 l 11.9998,0.91002 c 31.71,2.22 62.7701,10.01011 92.0001,22.52007 71.7196,30.67988 129.0307,92.23039 148.1103,168.57007 3.47,13.90996 5,27.7701 5.98,42.00002 l 0.9095,9.99991 V 1050.9999 1262 c 0,2.3 0.3801,6.4098 -1.5999,7.9798 -1.59,1.25 -5.41,1.0201 -7.4,1.0201 h -30.9997 -131.0003 c -1.99,0 -5.81,0.2299 -7.4,-1.0201 -2.52,-1.99 -1.5999,-14.4997 -1.5999,-17.9797 V 1193 933.99984 c -0.07,-45.93984 -44.1202,-80.47971 -87.9998,-80.99971 -32.93,-0.38 -63.9301,13.69014 -81.9501,42.00002 -6.9496,10.92996 -11.0299,22.98991 -11.0499,35.99987 V 1262 c 0,2.3 0.3801,6.4098 -1.5999,7.9798 -1.59,1.25 -5.4101,1.0201 -7.4001,1.0201 h -31.0002 -130.9997 c -1.99,0 -5.8101,0.2299 -7.4001,-1.0201 -2.52,-1.99 -1.5999,-14.4997 -1.5999,-17.9797 V 1193 936.00023 c -0.02,-10.65996 -2.2305,-22.33015 -6.7805,-32.00011 -31.9296,-67.90972 -136.4498,-67.73972 -168.4398,0 -4.59,9.72996 -6.76,20.2597 -6.78,30.99966 V 1262 c 0,2.3 0.3801,6.4098 -1.5999,7.9798 -1.59,1.25 -5.41,1.0201 -7.4,1.0201 h -31.0002 -130.9998 c -6.7396,-0.01 -8.8599,0.4899 -8.9999,-7.0001 V 1219 1046.0002 966.99989 c 0,-36.12984 -0.6002,-60.37998 9.1498,-95.99982 22.14,-80.86968 88.4704,-140.77026 165.8504,-168.31014 17.4996,-6.23 38.5696,-10.98004 56.9996,-13.41004 l 20.0003,-2.19005 h 6.9996 24.0001 l 12.0003,0.82011 c 32.2396,2.26 64.4899,10.09038 93.9999,23.3903 15.93,7.19 30.5302,15.19986 44.9998,25.03982 3.53,2.41 14.42,11.67997 18,11.41997 2.87,-0.22 12.0401,-7.96021 15.0001,-10.04021 10.03,-7.03996 24.9999,-16.09971 35.9999,-21.45967 32.7396,-15.95996 68.6803,-25.81021 105.0003,-28.35021 z m -348.925,169.9767 c 21.1032,-0.0236 42.2423,6.71323 58.9251,20.28352 9.7,7.88998 17.82,18.07982 22.55,29.73978 3.59,8.87 5.4398,19.45032 5.4498,29.0003 v 195.99997 l -0.9999,17 c 0,2.7698 0.4999,11.4698 -1.0201,13.3996 -1.85,2.33 -10.0401,1.6 -12.9801,1.6 h -36.9998 c -10.6,0.02 -13.6801,2.9901 -23.0001,7.1401 l -39.9997,19.62 c -6.61,3.36 -17.5202,8.6299 -22.0002,14.2399 h 127 c 6.74,0.01 8.86,-0.4899 9,7.0001 V 1245 c 0,2.3 0.3801,6.4099 -1.5999,7.9799 -1.8,1.4198 -7.9899,1.02 -10.3999,1.02 h -26 -126 c -1.99,0 -5.8101,0.2298 -7.4001,-1.02 -2.52,-1.99 -1.5999,-14.4998 -1.5999,-17.9798 v -55.0003 -245.00002 c 0.01,-8.5 1.2798,-15.94959 3.9998,-23.99957 4.03,-11.87998 9.1699,-19.17038 17.9999,-28.00036 17.2869,-17.28684 41.1581,-25.99653 65.0751,-26.02322 z" />
  </g>
  <g
     id="fpma"
     style="display:inline"
     transform="matrix(0.08250715,0,0,0.08250715,91.041367,136.2981)">
    <path
       id="path597"
       style="display:inline;fill:#ffffff;fill-opacity:1"
       d="m 1661.0377,705.21 c 0,0 40,0 40,0 0,0 10,0.71 10,0.71 29.8,2.38 65.23,12.04 92,25.33 17.08,8.48 29.78,16.35 45,27.88 3.2,2.42 13.74,12.15 17,11.84 2.52,-0.24 6.04,-3.89 8,-5.53 0,0 19,-14.42 19,-14.42 19.51,-13.46 40.62,-23.91 63,-31.68 20.38,-7.07 53.54,-14.31 75,-14.34 0,0 32,0 32,0 14.03,0.17 36.22,4.18 50,7.63 52.36,13.09 101.15,41.35 135.58,83.37 28.46,34.74 46.37,76.07 49.51,121 0,0 0.91,12 0.91,12 0,0 0,66 0,66 0,0 0,144 0,144 0,0 0,87 0,87 0,0 0,20 0,20 -0.04,1.95 0.1,4.63 -1.6,5.98 -1.59,1.25 -5.41,1.02 -7.4,1.02 0,0 -103,0 -103,0 0,0 -24,0 -24,0 -1.82,-0.01 -4.92,0.15 -6.4,-1.02 -1.98,-1.57 -1.6,-5.68 -1.6,-7.98 0,0 0,-308 0,-308 -0.09,-58.12 -51.25,-99.66 -107,-100.99 -52.85,-1.26 -109.91,39.94 -110,95.99 0,0 0,247 0,247 0,0 0,56 0,56 0,3.48 0.92,15.99 -1.6,17.98 -1.59,1.25 -5.41,1.02 -7.4,1.02 0,0 -104,0 -104,0 0,0 -24,0 -24,0 -1.82,-0.01 -4.92,0.15 -6.4,-1.02 -1.98,-1.57 -1.6,-5.68 -1.6,-7.98 0,0 0,-315 0,-315 -0.02,-9.7 -2.32,-18.99 -5.81,-28 -15.47,-39.92 -58.34,-64.99 -100.19,-65.99 -5.7,-0.13 -6.7,0.26 -12,0.83 -11.66,1.24 -22.05,3.18 -33,7.61 -38.34,15.53 -65.93,50.42 -66,92.55 0,0 0,243 0,243 0,0 0,55 0,55 0,3.48 0.92,15.99 -1.6,17.98 -1.59,1.25 -5.41,1.02 -7.4,1.02 0,0 -103,0 -103,0 0,0 -24,0 -24,0 -1.82,-0.01 -4.92,0.15 -6.4,-1.02 -1.98,-1.57 -1.6,-5.68 -1.6,-7.98 0,0 0,-209 0,-209 0,0 0,-75 0,-75 0,-22.06 -0.54,-42.08 3.42,-64 9.36,-51.79 37.61,-96.92 77.58,-130.73 16.6,-14.03 36.36,-26.21 56,-35.49 22.96,-10.85 49.88,-18.63 75,-22.35 0,0 18,-2.22 18,-2.22 z m -669.40004,22.81 c 4.06,-1.73 9.02004,-1.02 13.40004,-1.02 0,0 24,0 24,0 0,0 85,0 85,0 14.28,0.02 36.13,4.22 50,8.14 78.63,22.26 140.47,86.71 163,164.86 4.58,15.88 9.8,40.63 10,57 0,0 0,31 0,31 -0.04,23.39 -8.34,57.15 -16.81,79 -28.63,73.9 -92.78,132.62 -171.19,148.4 -10.65,2.14 -26.28,4.58 -37,4.6 0,0 -127.00004,0 -127.00004,0 0,0 -29,0 -29,0 -2.53,0.01 -6.36,-0.34 -8.26,1.6 -2.06,2.11 -1.74,6.63 -1.74,9.4 0,0 0,314 0,314 0,0 0,73 0,73 0,0 0,16 0,16 -0.04,1.95 0.1,4.63 -1.6,5.98 -1.59,1.25 -5.41,1.02 -7.4,1.02 0,0 -103,0 -103,0 0,0 -23,0 -23,0 -1.82,-0.01 -4.92,0.15 -6.4,-1.02 -1.98,-1.57 -1.6,-5.68 -1.6,-7.98 0,0 0,-426 0,-426 0,0 0,-99 0,-99 0,0 0,-22 0,-22 0.01,-1.82 -0.15,-4.92 1.02,-6.4 1.57,-1.98 5.68,-1.6 7.98,-1.6 0,0 292.00004,0 292.00004,0 41.23,-0.06 77.63,-29.99 91.14,-68 5.5,-15.49 6.04,-25.9 5.86,-42 -0.09,-7.66 -1.87,-15.67 -4,-23 -9.71,-33.46 -35.14,-60.91 -69,-70.57 -18.06,-5.16 -41.01,-3.43 -60,-3.43 0,0 -58,0 -58,0 -4.17,0 -16.63004,1.2 -18.98004,-2.31 -1.23,-1.85 -1.02,-5.5 -1.02,-7.69 0,0 0,-96 0,-96 0,0 0,-25 0,-25 0,-3.87 -0.71,-7.76 1.6,-10.98 z M 551.63765,563.01999 c 3.56,-1.51 7.56,-1.02 11.4,-1.02 0,0 22,0 22,0 0,0 77,0 77,0 0,0 23,0 23,0 1.82,0.01 4.92,-0.15 6.4,1.02 1.98,1.57 1.6,5.68 1.6,7.98 0,0 0,119 0,119 0,0 0,27 0,27 0.01,2.53 -0.34,6.36 1.6,8.26 2.11,2.06 6.63,1.74 9.4,1.74 0,0 132,0 132,0 0,0 31,0 31,0 1.99,0 5.81,-0.23 7.4,1.02 1.98,1.57 1.6,5.68 1.6,7.98 0,0 0,103 0,103 0,0 0,23 0,23 -0.04,2.14 0.04,4.77 -1.6,6.4 -1.92,1.92 -5.86,1.59 -8.4,1.6 0,0 -133,0 -133,0 0,0 -31,0 -31,0 -2.35,0.02 -5.61,-0.19 -7.4,1.6 -1.92,1.92 -1.59,5.86 -1.6,8.4 0,0 0,386.00001 0,386.00001 0,0 0,90 0,90 0,0 0,21 0,21 -0.04,1.95 0.1,4.63 -1.6,5.98 -1.59,1.25 -5.41,1.02 -7.4,1.02 0,0 -103,0 -103,0 0,0 -23,0 -23,0 -1.82,-0.01 -4.92,0.15 -6.4,-1.02 -1.98,-1.57 -1.6,-5.68 -1.6,-7.98 0,0 0,-387.00001 0,-387.00001 0,0 0,-90 0,-90 0,0 0,-19 0,-19 -0.04,-2.37 0.04,-5.58 -1.74,-7.4 -1.9,-1.94 -5.73,-1.59 -8.26,-1.6 0,0 -133,0 -133,0 0,0 -31,0 -31,0 -2.54,-0.01 -6.48,0.32 -8.4,-1.6 -1.92,-1.92 -1.59,-5.86 -1.6,-8.4 0,0 0,-102 0,-102 0,0 0,-23 0,-23 0.01,-1.82 -0.15,-4.92 1.02,-6.4 1.57,-1.98 5.68,-1.6 7.98,-1.6 0,0 134,0 134,0 0,0 30,0 30,0 2.77,-0.01 6.44,0.29 8.69,-1.6 2.69,-2.27 2.3,-6.22 2.31,-9.4 0,0 0,-112 0,-112 0,0 0,-28 0,-28 0,-4.22 -0.94,-9.44 1.6,-12.98 z M 784.03766,181.21 c 0,0 25,0 25,0 17.36,-0.18 40.51,4.63 57,10.12 69,23 119.69,75.32 149.69004,140.67 14.12,30.75 23.92,68.31 27.14,102 0,0 1.17,25 1.17,25 0,1.99 0.23,5.81 -1.02,7.4 -1.57,1.98 -5.68,1.6 -7.98,1.6 0,0 -115.00004,0 -115.00004,0 -9.12,-0.17 -6.18,-3.44 -7.58,-14 0,0 -0.7,-9 -0.7,-9 -1.23,-10.17 -3.54,-23.23 -6.44,-33 -12.62,-42.51 -38.55,-89.59 -83.28,-104.33 -53.2,-17.53 -95.73,30.84 -115.69,74.33 0,0 -8.98,24 -8.98,24 -5.04,15.18 -9.22,38.03 -9.33,54 -0.06,8.13 -1.27,7.98 -9,8 0,0 -114,0 -114,0 -1.99,0 -5.81,0.23 -7.4,-1.02 -1.68,-1.33 -1.6,-4.05 -1.51,-5.98 0,0 0.91,-15 0.91,-15 0.22,-18.2 5.18,-43.21 9.63,-61 18.53,-74.11 64.36,-141.83 132.37,-178.69 17.98,-9.75 41.85,-18.25 62,-21.89 0,0 23,-3.21 23,-3.21 z M 2688.2773,707.97642 c -38.7829,0.2179 -77.2365,5.50603 -114.2396,17.6935 -83.5797,27.51991 -159.3299,91.14013 -189.3099,175.32986 -7.46,20.94994 -14.66,51.8102 -14.69,74.00014 v 23.00015 l 0.9198,11.99973 c 3.05,38.18 16.13,75.2102 35.68,108.0002 17.97,30.1397 42.6704,56.9705 70.4004,78.3502 43.6497,33.65 94.7599,54.9597 148.9996,64.0597 l 32.0002,3.6799 9.9999,0.91 c 33.2397,0.39 59.1903,-0.2197 92,-7.4197 21.84,-4.8 41.3799,-10.6504 61.9999,-19.4304 l 36.0004,-16.1499 V 1244 c 0,2.3 -0.3801,6.4099 1.5999,7.9799 1.48,1.17 4.5796,1.0101 6.3996,1.0201 h 23.0001 102.9999 c 8.64,-0.02 8.98,-0.36 9,-9 v -56.0002 -212.99988 l -0.8299,-8.99997 c -1.77,-18.23994 -4.07,-32.30011 -9.17,-50.00005 -35.38,-122.72961 -160.2703,-201.6401 -283.9997,-207.04007 l -11.0004,-0.95963 c -2.5881,-0.03 -5.1747,-0.0383 -7.7602,-0.0238 z m -15.2394,131.16357 h 17.9999 l 20.9998,1.73013 c 53.9496,7.48996 102.5401,37.60028 127.2501,87.13008 7.89,15.82996 13.54,36.23989 13.75,53.99981 0.19,16.54992 -1.4098,30.21979 -6.6698,45.99979 -5.35,16.07 -11.8504,28.53 -22.2204,42 -12.29,15.97 -27.7999,29.2504 -45.1099,39.55 -22.32,13.28 -56.9101,24.4102 -83.0001,24.4502 h -22.9996 c -11.55,-0.14 -28.7902,-3.7801 -40.0002,-7.0001 -66.0396,-18.9596 -115.1102,-72.5104 -115.0002,-143.00001 0.03,-21.98992 7.2204,-44.91976 17.8604,-63.99972 21.07,-37.75984 59.26,-62.91016 100.1396,-74.57012 12.29,-3.51 24.4704,-4.35006 37.0004,-6.29006 z" />
  </g>
</svg>
