<svg width="17" height="16" viewBox="0 0 17 16" fill="currentColor" xmlns="http://www.w3.org/2000/svg">
<path d="M14.9549 13.6004L9.94576 8.9156L11.1398 7.55188C11.4639 7.17909 11.9622 7.04952 12.4298 7.17909C13.4035 7.4489 14.4848 7.18927 15.2489 6.39687C16.3897 5.21367 17.847 2.44964 16.3851 0.933445C14.9232 -0.582745 12.2581 0.9285 11.1171 2.11184C10.3531 2.90423 10.1027 4.02562 10.3629 5.0355C10.4878 5.5204 10.3629 6.03718 10.0034 6.37334L8.62034 7.6758L7.63259 6.75205C7.35884 6.49606 7.24075 6.09534 7.35856 5.73305C7.70257 4.67622 7.46879 3.4616 6.65677 2.61946C6.55804 2.51707 6.46491 2.4186 6.37165 2.32013L4.26798 0.138409C4.07907 -0.0575076 3.76577 -0.0454362 3.59229 0.174626C3.44139 0.365889 3.47364 0.650818 3.64222 0.825635L5.72751 2.98829L5.20818 3.52689L3.12289 1.36423C2.95445 1.18955 2.67971 1.15595 2.49517 1.31245C2.28312 1.49237 2.27148 1.81743 2.46025 2.01321L4.56392 4.19493L4.04459 4.73353L1.9593 2.57087C1.79086 2.39619 1.51612 2.36259 1.33172 2.51909C1.11967 2.69901 1.10803 3.02407 1.2968 3.21985L3.40047 5.40157L2.88114 5.94016L0.795851 3.77751C0.627418 3.60282 0.35267 3.56922 0.168274 3.72573C-0.0437735 3.90565 -0.0554166 4.2307 0.133353 4.42648L2.23703 6.6082C2.31108 6.68383 2.38639 6.76092 2.46324 6.84019C3.28283 7.68683 4.4773 7.97194 5.51568 7.62692C5.874 7.50795 6.26669 7.63652 6.51872 7.9264L13.1499 15.5524C13.1794 15.5861 13.2119 15.62 13.2451 15.6512C13.791 16.1617 14.6381 16.1064 15.1173 15.521C15.5803 14.9555 15.4861 14.0975 14.9547 13.6005L14.9549 13.6004Z"/>
<path d="M6.40109 8.65427C6.36091 8.60743 6.2874 8.60203 6.24024 8.64266L1.65273 12.5893C1.61968 12.6176 1.58648 12.6489 1.55599 12.6809C1.05592 13.2062 1.11004 14.0214 1.6835 14.4825C2.2377 14.9282 3.07814 14.8376 3.56497 14.3262L7.0055 10.7369C7.36381 10.363 7.38033 9.79737 7.04454 9.40541L6.40109 8.65427Z"/>
</svg>
