<svg width="17" height="17" viewBox="0 0 17 17" fill="currentColor" xmlns="http://www.w3.org/2000/svg">
<g id="chambre-icon">
<path id="Path" d="M13.1899 11.0294V7.10546C13.1899 6.94642 13.0645 6.82263 12.9034 6.82263H11.9726C11.8115 6.82263 11.6683 6.96405 11.6683 7.10546C11.6683 7.47671 11.364 7.77715 10.988 7.77715H6.01173C5.63576 7.77715 5.33149 7.47669 5.33149 7.10546C5.33149 6.94642 5.18827 6.82263 5.0272 6.82263H4.09634C3.93527 6.82263 3.79205 6.96405 3.79205 7.10546V11.0294H6.19067V10.4991C6.19067 10.0748 6.53081 9.73911 6.96033 9.73911H10.0034C10.433 9.73911 10.773 10.075 10.773 10.4991V11.0294H13.1899Z"/>
<path id="Path_2" d="M13.3868 11.7717H3.61316C2.66444 11.7717 1.91266 12.5317 1.91266 13.4508V15.8901C1.91266 16.0491 2.05588 16.1905 2.21695 16.1905H3.12984C3.29091 16.1905 3.43413 16.0491 3.43413 15.8901C3.43413 15.3775 3.86377 14.9533 4.38285 14.9533H12.617C13.1361 14.9533 13.5658 15.3775 13.5658 15.8901C13.5658 16.0491 13.709 16.1905 13.87 16.1905H14.8009C14.962 16.1905 15.1052 16.0491 15.1052 15.8901V13.4508C15.1052 12.5141 14.3354 11.7717 13.3867 11.7717H13.3868Z"/>
<path id="Path_3" d="M16.77 5.21417L14.4429 3.6941L14.443 0.919147C14.443 0.707082 14.264 0.530292 14.0492 0.530292H12.6351C12.4204 0.530292 12.2413 0.707095 12.2413 0.919147V2.24479L9.03715 0.159049C8.71501 -0.0530162 8.28534 -0.0530162 7.96307 0.159049L0.230096 5.21417C-0.00264762 5.37322 -0.0741949 5.67369 0.0868767 5.92111L0.588088 6.68109C0.749163 6.9109 1.05347 6.98155 1.30404 6.8225L8.5 2.10321L15.696 6.80483C15.9287 6.96388 16.2508 6.89323 16.4119 6.66341L16.9131 5.90344C17.0742 5.67362 17.0026 5.35541 16.7699 5.21398L16.77 5.21417Z"/>
</g>
</svg>
